<?xml version="1.0" encoding="UTF-8"?><svg id="a" xmlns="http://www.w3.org/2000/svg" viewBox="0 0 601.07 387.75"><defs><style>.ah{fill:#fff;}</style></defs><g><g><g id="b"><path class="ah" d="M364.84,377.38s-48.25-55.99-104.82-40.35c-26.02,10.62-41.34,18.12-49.73,19.76-8.32,1.48-27.91,3.05-39.85-5.02,21.9,20.01,42.24,21.24,57.23,18.44,14.99-2.88,29.97-15.07,33.84-18.2,3.95-3.05,18.2-20.01,45.86-9.06,20.01,9.39,45.45,36.97,49.73,41.91l7.74-7.49"/></g><g id="c"><path class="ah" d="M259.68,335.96c-.08,0-22.4,9.39-22.4,9.39-13.09,5.6-21.74,9.22-27.26,10.29-2.55,.49-25.44,4.36-38.95-4.86l-1.4,1.73c0,.08,.08,.16,.08,.16,17.87,16.22,37.38,22.48,58.13,18.61,9.96-1.89,21.49-7.99,34.17-18.28,.16-.08,1.65-1.4,1.65-1.4,5.19-4.69,18.94-17.21,43.23-7.58,19.35,9.06,44.14,35.49,49.24,41.58l.82,.91,9.39-9.06-.74-.82c-.49-.58-49.32-56.32-105.98-40.68Zm-49.16,21.9c5.68-1.07,14.41-4.78,27.58-10.46l22.31-9.3c52.7-14.57,98.48,34.42,102.85,39.2-1.15,1.15-4.94,4.78-6.18,5.93-6.34-7.25-30.14-32.36-49.32-41.25-25.61-10.21-40.1,2.96-45.62,7.99l-1.32,1.24c-12.52,10.05-23.71,16.06-33.43,17.87-17.7,3.38-34.5-1.4-50.15-13.34,13.92,4.86,30.96,2.55,33.27,2.14"/></g><g id="d"><path class="ah" d="M249.23,334.48s-31.13,6.67-42.82,10.05c-11.69,3.46-51.22,4.12-74.27-30.96,18.28,14.99,40.68,14.99,49.65,14.66,9.06-.25,32.36,3.21,43.81,5.35-.25-2.14-11.77-4.69-15.23-6.51-3.46-1.81-13.17-4.69-24.95-30.38-3.95-7.82-4.61-12.19-7.33-14.57,4.94,.74,14.57,11.12,17.54,14.25,2.96,3.13,20.92,23.8,31.13,29.07,10.21,5.35,15.23,7.9,22.48,9.06"/></g><g id="e"><path class="ah" d="M177.34,283.01c1.48,1.24,2.31,3.21,3.54,6.26l3.54,7.9c10.95,23.96,20.09,28.33,24.46,30.47l.91,.41,6.34,2.31c.66,.25,1.56,.58,2.39,.82-11.77-1.89-28.98-4.28-36.72-4.03-20.01,.58-36.48-4.28-48.91-14.49l-1.73,1.56c22.23,33.68,61.18,35.65,75.59,31.37,11.45-3.38,42.41-9.88,42.74-9.96l-.08-2.22c-7.16-1.24-12.19-3.79-22.15-8.98-8.65-4.53-23.3-20.67-28.82-26.76l-1.98-2.14-.74-.74c-6.18-6.51-13.09-13.17-17.46-13.75l-.91,1.98Zm39.44,45.21l-5.93-2.14-.99-.49c-3.87-1.81-12.76-6.18-23.39-29.4,0-.08-3.54-7.82-3.54-7.82-.66-1.73-1.48-2.55-2.22-3.79,4.53,2.63,10.7,8.98,13.34,11.77l.74,.74,1.89,2.14c5.6,6.09,20.5,22.56,29.56,27.26,7.74,4.03,12.6,6.51,17.79,7.99-9.3,2.06-29.15,6.34-37.96,8.98-13.09,3.87-47.02,2.14-68.84-25.11,12.02,7.74,26.93,11.61,44.63,11.03,8.65-.25,31.13,2.96,43.48,5.27l1.48,.33-.16-1.56c0-.33-.66-.58-.91-.91h0l-.08-.08c-1.07-1.32-3.54-2.47-8.89-4.2"/></g><g id="f"><path class="ah" d="M191.75,321.96s-15.65-4.28-27.26-5.93c-11.69-1.56-52.45-11.86-68.34-59.7,16.06,18.69,19.68,19.84,29.07,24.54,9.47,4.69,37.96,20.92,47.84,29.81l2.88,1.65s.99-1.24-3.38-4.94c-4.2-3.79-18.61-16.88-20.83-46.19-1.81-12.93-4.69-24.7-5.6-26.27,6.51,3.71,14.16,18.69,15.73,22.89,1.56,4.28,12.1,33.84,13.5,37.38,1.32,3.46,9.88,22.23,16.39,26.76"/></g><g id="g"><path class="ah" d="M145.15,235.42c.74,1.32,3.62,12.76,5.43,25.94,1.07,13.75,5.6,33.1,21.24,46.85q.08,0,.08,.08c-10.87-8.98-36.72-23.71-46.19-28.41l-1.48-.82c-8.15-4.03-12.27-6.01-27.17-23.47l-1.98,1.07c17.29,52.12,63.98,59.86,69.25,60.52,11.45,1.48,26.93,5.93,27.09,5.93l.99-1.98c-6.01-4.28-14.41-22.15-16.06-26.35l-13.42-37.3c-1.48-3.87-9.22-19.52-16.22-23.55l-1.56,1.48Zm31.7,77.57c.25-.25,.33-.58,.33-.99,0-1.07-.74-2.8-3.87-5.43-14.99-13.34-19.43-32.03-20.42-45.45-1.24-8.89-3.05-17.54-4.45-22.56,5.43,5.43,11.03,16.14,12.35,19.68l13.5,37.38c.91,2.39,7.66,17.21,14,24.29-5.27-1.32-15.4-3.87-23.71-4.94-4.78-.66-46.03-7.99-64.56-52.62,11.2,12.43,15.81,15.15,23.14,18.77l1.56,.74c9.8,4.94,37.88,20.91,47.59,29.64,.16,.16,3.13,1.81,3.13,1.81l.82,.49,.58-.82"/></g><g id="h"><path class="ah" d="M148.19,282.93s-19.6-11.45-30.38-19.84c-10.79-8.48-41.09-30.55-37.96-69.74,4.69,12.68,12.35,24.21,20.67,31.21,8.32,7.08,23.39,29.31,27.01,34.5,3.54,5.19,6.01,6.59,6.01,6.59,0,0,1.15-2.55-2.88-7-2.96-4.78-8.32-15.97-5.43-40.43,3.62-22.73,4.94-28.16,4.28-31.7,3.13,7.99,7.25,25.2,8.81,52.12,.91,15.23,2.63,27.01,4.61,32.2,2.06,5.11,5.27,12.1,5.27,12.1"/></g><g id="i"><path class="ah" d="M128.43,186.75c.08,.49,.08,1.07,.08,1.73,0,2.55-.66,6.59-2.06,15.15l-2.31,14.41c-.58,4.86-.91,9.3-.91,13.5,0,11.53,2.14,20.83,6.42,27.67,1.4,1.48,2.06,2.63,2.47,3.62-.99-.99-2.22-2.31-3.71-4.45l-1.24-1.73c-4.94-7.25-18.28-26.43-25.94-32.94-8.15-6.92-15.73-18.36-20.42-30.8l-2.14,.33c-3.05,38.37,25.11,60.27,37.14,69.74l1.24,.91c10.7,8.4,30.3,19.93,30.47,20.01l1.65-1.4-5.19-12.1c-1.98-5.27-3.71-17.13-4.61-31.87-1.89-32.61-7.25-48.42-8.81-52.45l-2.14,.66Zm.25,17.21c.91-5.19,1.4-8.48,1.73-11.12,2.22,7.74,5.35,22.23,6.75,45.86,.91,14.9,2.63,27.01,4.78,32.53,0,0,2.31,5.35,3.79,8.98-5.85-3.54-19.1-11.69-27.26-18.03l-1.24-.99c-11.12-8.73-36.48-28.49-36.48-62.25v-1.24c4.86,11.2,11.45,21.33,19.02,27.75,7.49,6.26,20.67,25.36,25.61,32.53l1.15,1.73c3.71,5.27,6.34,6.83,6.42,6.92l1.15,.66,.41-1.24c.25-.33,1.32-3.38-3.05-8.23-5.43-8.73-7.16-22.07-5.11-39.44l2.31-14.41"/></g><g id="j"><path class="ah" d="M115.58,228.34s-6.75-10.54-12.85-17.46c-6.09-6.75-33.02-37.22-19.1-88.6,0,11.94,1.65,18.69,2.88,22.97,1.4,4.2,14.74,32.85,16.06,40.59,1.32,7.74,3.54,22.31,6.67,23.96,1.15-.74-.16-3.29-.58-5.68-.49-2.31-4.36-22.23,7.33-43.89,10.62-19.02,12.6-20.83,14.16-27.42,.49,12.43-3.54,37.05-6.75,47.43-3.13,10.29-11.61,34.25-7.82,48.09"/></g><g id="k"><path class="ah" d="M101.92,211.7c5.93,6.67,12.68,17.13,12.68,17.21l2.06-.91c-3.29-12.02,3.21-32.61,6.67-43.72l1.15-3.71c3.05-9.88,7.33-34.83,6.83-47.84l-2.22-.25c-1.15,4.53-2.39,6.83-6.75,14.33l-7.33,12.93c-6.92,12.76-8.48,25.03-8.48,33.6,0,5.02,.58,8.48,.91,10.29-1.48-5.02-2.8-12.35-3.54-16.3l-.25-1.65c-.91-5.43-7.16-20.01-11.78-30.63l-4.2-10.13c-1.24-3.95-2.88-10.7-2.88-22.64l-2.22-.33c-9.14,33.68-2.22,65.54,19.35,89.75Zm1.65-1.56c-14.99-16.72-22.64-37.3-22.64-59.62,0-6.26,.82-12.6,1.98-19.02,.58,6.67,1.65,11.12,2.55,14.08l4.36,10.38c4.28,9.88,10.79,24.95,11.61,30.06l.25,1.73c2.06,11.61,3.95,21.41,7.08,23.06l.58,.25,.58-.33c.66-.41,.91-1.15,.91-1.89,0-.91-.25-1.89-.58-2.88l-.49-1.98c-.33-1.48-.99-5.27-.99-10.7,0-8.23,1.56-20.09,8.32-32.44l7.25-12.85c2.06-3.62,3.46-6.01,4.45-8.15-.66,13.34-3.95,31.87-6.42,40.1l-1.15,3.71c-3.05,9.63-7.74,24.37-7.74,36.48,0,1.32,.33,2.47,.49,3.71-2.55-3.71-6.51-9.3-10.38-13.67"/></g><g id="l"><path class="ah" d="M104.3,165.84s-4.03-16.39-8.98-29.48c-4.94-13.17-14.41-43.72,10.13-75.59-5.19,12.68-3.13,20.92-3.13,22.31s3.05,29.56,3.13,36.56c.08,8.98-1.56,24.46-1.56,24.46,0,0,.58,1.89,1.81,0,.74-1.15,2.39-21.16,14.41-33.1,11.12-11.12,20.17-19.52,22.64-24.13,0,8.15-4.69,20.17-8.56,26.68-3.79,6.59-19.52,28.16-23.14,35.41-3.54,7.33-6.75,15.97-6.75,16.88"/></g><g id="m"><path class="ah" d="M94.26,136.77c4.86,12.85,8.89,29.23,8.98,29.4l2.22-.25c.08-.91,3.05-9.06,6.67-16.39,2.06-4.28,8.4-13.59,14.08-21.82l8.98-13.59c4.2-7.16,8.65-19.19,8.65-27.26l-2.06-.58c-1.98,3.71-8.4,10.05-16.63,18.12l-5.85,5.76c-9.96,9.88-13.01,25.36-14.16,31.13,0,0-.25,1.32-.33,1.89,.41-2.06,1.73-23.55,1.73-23.55l-2.31-28.9-.82-8.73c-.16-.99-.33-2.55-.33-4.61,0-3.79,.66-9.3,3.38-16.22l-1.89-1.15c-17.37,22.64-20.83,48.42-10.29,76.74Zm2.14-.82c-3.87-10.38-5.85-20.42-5.85-30.06,0-13.5,4.03-26.18,11.61-38.12-.91,3.79-1.32,7.16-1.32,9.63,0,2.14,.16,3.79,.25,4.86,.16,.82,.82,8.73,.82,8.73l2.39,28.66-1.56,24.29c.16,.74,.58,1.98,1.73,2.06,.82,.16,1.56-.33,2.14-1.32l.74-2.96c1.15-5.6,4.03-20.5,13.5-29.89l5.93-5.85c6.75-6.67,11.36-11.45,14.33-15.32-1.07,7.74-4.86,17.21-7.9,22.4l-8.89,13.42c-5.68,8.23-12.1,17.62-14.25,21.99-2.14,4.36-4.28,9.63-5.6,13.34-1.56-5.6-4.53-16.55-8.07-25.86"/></g><g id="n"><path class="ah" d="M111.38,110.01s1.81-4.53,.16-22.81c-1.73-18.28-2.47-43.23,25.86-60.03-7.08,11.86-8.23,13.92-10.38,23.63-2.14,9.63-4.53,25.11-8.4,33.84-1.56,4.28-2.55,7.66-1.81,8.07,.66,.41,.99-.33,1.48-1.81,.66-1.48,6.42-14.57,18.12-22.89,11.69-8.32,22.23-16.63,26.18-24.87-1.73,15.23-7.49,20.67-13.26,28.33-6.26,8.32-28.74,25.69-32.53,31.37-3.87,5.6-5.43,7.16-5.43,7.16"/></g><g id="o"><path class="ah" d="M110.4,87.28c1.65,17.54-.08,22.23-.08,22.23l1.81,1.32,5.6-7.41c1.73-2.55,7.82-7.9,14.16-13.59,7.41-6.51,15.07-13.26,18.36-17.7l2.31-2.96c4.94-6.34,9.63-12.35,11.2-25.86l-2.14-.66c-3.95,8.15-14.74,16.55-25.86,24.46-8.48,6.01-13.83,14.41-16.55,19.43,.16-.58,.25-.74,.49-1.48,2.96-6.59,4.94-16.96,6.83-26.02l1.56-7.99c2.14-9.39,3.13-11.28,10.29-23.3l-1.56-1.56c-30.47,18.12-27.83,46.11-26.43,61.1Zm2.96,13.26c0-3.38-.16-7.74-.74-13.42-.33-3.54-.66-7.82-.66-12.52,0-13.34,3.95-29.89,21.41-42.74-4.36,7.41-5.68,10.62-7.41,18.69l-1.73,7.99c-1.73,8.98-3.79,19.19-6.67,25.69-1.56,4.2-2.14,6.51-2.14,7.82,0,.91,.33,1.32,.82,1.65l.41,.25,.99-.08c.91-.33,1.32-1.32,1.73-2.63,.58-1.32,6.42-14.25,17.7-22.31,9.3-6.59,18.12-13.59,23.39-20.5-1.89,8.98-5.52,14-9.72,19.43l-2.31,2.88c-3.21,4.28-11.03,11.28-18.03,17.46-6.75,6.01-12.68,11.2-14.57,14,0,0-1.32,1.81-2.63,3.54,.08-1.4,.16-2.96,.16-5.19"/></g><g id="p"><path class="ah" d="M132.55,61.51s3.71-19.35,11.12-30.8c7.41-11.45,22.81-21.57,39.03-26.6-5.68,4.78-9.14,9.06-11.12,12.52-1.98,3.38-14.25,22.56-19.84,28.66-5.76,6.09-14.99,11.61-19.19,16.22"/></g><g id="q"><path class="ah" d="M142.68,30.06c-7.41,11.53-11.03,30.47-11.2,31.21l1.98,.99,8.23-7,10.79-9.22c5.85-6.26,18.2-25.53,20.09-28.82,2.31-4.03,5.93-8.15,10.87-12.27l-1.07-1.89c-17.13,5.27-32.28,15.65-39.69,27.01Zm1.98,1.24c6.26-9.72,18.77-18.53,33.1-24.04-2.88,2.96-5.43,5.93-7.16,8.81-1.89,3.21-14.08,22.31-19.76,28.49,0,0-13.92,11.77-16.47,13.92,1.4-5.93,4.86-18.77,10.29-27.17"/></g><g id="r"><path class="ah" d="M249.56,378.86s46.85-57.23,103.75-42.98c26.35,9.96,41.75,17.04,50.23,18.36,8.4,1.4,27.91,2.47,39.69-6.01-21.41,20.59-41.75,22.4-56.73,19.93-15.07-2.47-30.3-14.25-34.25-17.29-3.95-3.05-18.77-19.52-46.03-7.9-19.93,9.88-44.63,38.04-48.75,43.15l-7.9-7.25"/></g><g id="s"><path class="ah" d="M248.65,378.12l-.66,.82,9.63,8.81,.74-.99c5.02-6.18,29.23-33.27,48.34-42.82,23.96-10.21,38.04,1.98,43.31,6.59l1.48,1.24c13.09,9.96,24.7,15.89,34.83,17.54,20.75,3.29,40.18-3.46,57.56-20.09q.08-.08,.08-.16l-1.4-1.73c-13.34,9.55-36.31,6.26-38.87,5.85-5.52-.91-14.08-4.28-27.09-9.47l-22.89-8.89c-57.06-14.33-104.58,42.74-105.07,43.31Zm104.41-41.17l22.73,8.89c13.17,5.19,21.82,8.65,27.58,9.55,2.14,.33,18.36,2.55,31.87-2.06-14.99,11.69-31.21,16.47-48.58,13.67-9.63-1.56-21-7.25-33.6-16.96-.16-.08-1.56-1.24-1.56-1.24-5.6-4.86-20.42-17.7-45.78-6.83-18.86,9.3-42.16,35-48.34,42.49-1.24-1.07-5.11-4.69-6.26-5.68,4.2-4.94,48.75-55.09,101.94-41.83"/></g><g id="t"><path class="ah" d="M364.09,333.08s31.29,5.76,42.98,8.89c11.78,3.13,51.38,2.8,73.61-32.85-17.95,15.48-40.43,16.06-49.41,15.97-8.98-.08-32.28,3.95-43.56,6.42,.16-2.22,11.61-5.02,15.07-6.92,3.38-1.89,13.01-5.02,24.13-31.04,3.87-7.9,4.36-12.35,7.08-14.74-4.94,.91-14.33,11.53-17.21,14.66-2.96,3.29-20.42,24.37-30.47,29.89-10.05,5.68-15.07,8.23-22.23,9.72"/></g><g id="u"><path class="ah" d="M416.79,291.82l-.82,.91-2.22,2.47c-5.35,6.18-19.52,22.56-27.91,27.17-10.21,5.76-15.07,8.15-21.99,9.55v2.22c.25,.08,31.37,5.85,42.98,8.89,14.49,3.95,53.44,.99,74.77-33.35l-1.65-1.4c-12.27,10.54-28.66,15.81-48.58,15.65-7.82-.08-24.87,2.72-36.72,5.02,.82-.33,1.73-.66,2.47-.91l6.18-2.47,.99-.49c3.95-1.98,13.26-6.75,23.71-31.04l3.38-7.99c1.15-3.05,1.98-5.11,3.29-6.34l-.91-1.98c-4.28,.74-10.95,7.49-16.96,14.08Zm-29.89,32.61c8.73-4.94,22.64-20.92,28.57-27.75l2.14-2.39,.91-.99c2.55-2.8,8.48-9.14,12.85-11.94-.66,1.24-1.48,2.14-2.14,3.87l-3.29,7.82c-10.13,23.63-18.94,28.08-22.73,30.06l-.99,.49-5.85,2.31c-5.35,1.89-7.74,3.13-8.81,4.45l-.08,.08h0c-.25,.33-.82,.66-.91,.99l-.08,1.56,1.48-.41c10.54-2.31,34.09-6.42,43.31-6.34,17.7,.08,32.53-4.12,44.38-12.27-21.24,27.91-55.09,30.47-68.26,26.93-8.81-2.39-28.82-6.26-38.21-7.99,5.02-1.65,9.8-4.12,17.7-8.48Zm41.09-30.38h0"/></g><g id="v"><path class="ah" d="M421.32,319.08s15.4-4.78,27.01-6.59c11.69-1.89,52.21-13.26,66.86-61.51-15.56,19.1-19.1,20.34-28.41,25.36-9.3,4.86-37.47,21.74-47.18,30.88l-2.88,1.73s-.82-1.15,3.29-4.94c4.2-3.87,18.28-17.37,19.84-46.77,1.48-12.93,4.12-24.7,5.02-26.43-6.42,3.95-13.75,19.19-15.23,23.39-1.48,4.28-11.36,34.09-12.6,37.63-1.32,3.54-9.39,22.48-15.73,27.26"/></g><g id="w"><path class="ah" d="M448.58,253.86l-12.6,37.63c-1.65,4.36-9.55,22.31-15.4,26.68l.99,1.98c.16,0,15.56-4.78,27.01-6.59,5.19-.82,51.71-9.72,67.77-62.25l-1.98-1.07c-14.66,17.95-18.44,19.93-26.68,24.29l-1.48,.74c-9.22,4.94-34.34,20.09-45.29,29.4,15.23-14.25,19.35-33.6,20.09-47.35,1.48-13.26,4.03-24.62,4.86-25.94l-1.65-1.56c-6.92,4.28-14.25,20.17-15.65,24.04Zm-10.46,38.37l12.6-37.63c1.24-3.62,6.59-14.41,11.86-20.01-1.24,5.02-2.8,13.5-3.87,22.48-1.07,19.52-7.58,35-19.43,46.11-2.88,2.63-3.71,4.36-3.71,5.43,0,.41,.08,.82,.33,1.07l.58,.74,3.71-2.22c9.63-8.98,37.38-25.69,47.1-30.88l1.4-.74c7.33-3.87,11.86-6.67,22.81-19.52-17.37,45.12-58.46,53.44-63.32,54.26-8.23,1.32-18.28,4.03-23.55,5.6,6.18-7.16,12.43-21.74,13.5-24.7"/></g><g id="x"><path class="ah" d="M463.89,278.98s19.27-12.02,29.89-20.75c10.54-8.65,40.35-31.45,36.31-70.57-4.45,12.76-11.78,24.46-19.93,31.7-8.15,7.25-22.64,29.89-26.1,35.16-3.54,5.27-5.93,6.75-5.93,6.75,0,0-1.24-2.55,2.72-7.16,2.8-4.69,7.99-16.14,4.45-40.43-4.12-22.73-5.52-28.08-5.02-31.54-2.88,7.99-6.59,25.2-7.49,52.21-.49,15.32-2.06,27.09-3.95,32.28-1.89,5.27-4.94,12.35-4.94,12.35"/></g><g id="y"><path class="ah" d="M471.63,234.35c-.49,14.74-1.98,26.68-3.87,31.87l-4.86,12.35,1.65,1.4c.16-.16,19.43-12.19,29.97-20.83l1.24-.99c11.78-9.72,39.44-32.28,35.49-70.65l-2.22-.25c-4.36,12.68-11.53,24.13-19.6,31.29-7.49,6.67-20.34,26.18-25.2,33.6l-1.15,1.81c-1.48,2.14-2.63,3.46-3.54,4.45,.33-.91,.91-2.06,2.14-3.54,3.95-6.59,5.93-15.4,5.93-26.1,0-4.78-.33-9.88-1.15-15.23,0-.08-2.72-14.66-2.72-14.66-1.65-8.73-2.39-12.68-2.39-15.15,0-.49,0-.99,.08-1.4l-2.14-.58c-1.56,4.12-6.51,20.09-7.66,52.62Zm-1.73,32.69c1.98-5.43,3.54-17.62,4.03-32.61,.82-23.63,3.62-38.12,5.68-45.95,.33,2.55,.91,5.85,1.89,10.79l2.72,14.57c.74,5.35,1.15,10.38,1.15,14.99,0,10.21-1.89,18.61-5.52,24.7-2.47,2.88-3.05,5.19-3.05,6.59,0,.91,.25,1.48,.33,1.56l.49,1.24,1.07-.66c.16-.08,2.72-1.73,6.26-7.08l1.24-1.81c4.78-7.33,17.46-26.68,24.79-33.1,7.33-6.59,13.67-16.88,18.2-28.16,.08,.91,.16,1.89,.16,2.8,0,32.77-24.29,52.7-35.08,61.51l-1.24,.99c-7.99,6.59-21,15.07-26.76,18.77,1.4-3.54,3.62-9.14,3.62-9.14"/></g><g id="a`"><path class="ah" d="M495.18,223.48s6.51-10.7,12.43-17.7c5.93-6.92,32.2-38.12,17.04-89.09,.25,11.94-1.15,18.77-2.39,23.06-1.24,4.2-13.83,33.18-14.99,40.92-1.24,7.82-3.13,22.4-6.26,24.13-1.07-.66,.25-3.29,.58-5.6,.41-2.39,3.79-22.48-8.4-43.72-11.03-18.69-13.09-20.59-14.74-27.09-.25,12.43,4.45,36.97,7.74,47.18,3.46,10.29,12.52,34.01,8.98,47.92"/></g><g id="aa"><path class="ah" d="M523.51,116.68v3.05c0,7.82-.74,14.25-2.31,19.68l-4.12,10.62c-4.28,10.62-10.13,25.2-10.95,30.47l-.33,2.22c-.58,4.03-1.65,10.87-2.96,15.65,.25-1.65,.66-4.45,.66-8.56,0-8.56-1.65-21.49-9.39-34.91l-7.66-12.76c-4.45-7.33-5.76-9.63-6.92-14l-2.31,.25c-.16,12.85,4.69,37.71,7.9,47.59l1.32,3.79c3.71,10.95,10.7,31.37,7.66,43.48l2.06,.82c.08-.08,6.51-10.7,12.35-17.54,21-24.7,27.09-56.73,17.21-90.17l-2.22,.33Zm-21.9,89.09c3.13-1.73,4.78-11.36,6.42-22.73l.33-2.14c.82-5.11,6.83-20.09,10.79-30.06l4.2-10.79c.82-2.88,1.65-7.9,2.06-14.66,1.65,7.33,2.63,14.57,2.63,21.66,0,21.41-7.16,41.42-21.24,57.97-3.71,4.36-7.49,9.96-9.96,13.75,.08-.91,.33-1.65,.33-2.55,0-12.19-5.19-27.42-8.56-37.22l-1.32-3.79c-2.63-8.23-6.26-26.51-7.25-39.77,1.07,2.06,2.39,4.36,4.53,7.82l7.66,12.76c7.41,13.01,8.98,25.44,8.98,33.68,0,4.61-.49,7.99-.66,9.22-.08,0-.58,2.14-.58,2.14-.16,.99-.49,1.89-.49,2.72s.25,1.56,.99,1.98l.58,.33,.58-.33"/></g><g id="ab"><path class="ah" d="M504.98,160.82s3.71-16.55,8.32-29.81c4.61-13.26,13.34-43.97-11.86-75.26,5.43,12.52,3.62,20.83,3.71,22.23,0,1.4-2.47,29.64-2.31,36.64,.08,8.98,2.14,24.37,2.14,24.37,0,0-.58,1.89-1.81,.08-.82-1.24-2.88-21.16-15.15-32.77-11.45-10.79-20.67-18.94-23.22-23.55,.16,8.23,5.19,20.01,9.14,26.51,3.95,6.42,20.17,27.67,23.96,34.83,3.71,7.16,7.08,15.73,7.08,16.72"/></g><g id="ac"><path class="ah" d="M500.37,56.24c3.29,7.33,3.87,13.17,3.87,16.96,0,1.65-.08,2.88-.16,3.71l-.66,8.23-1.73,29.48s1.32,14.99,1.89,21.49c-1.4-6.34-4.69-21.08-14.82-30.55,0-.08-6.26-6.01-6.26-6.01-8.23-7.74-14.74-13.83-16.72-17.37l-2.14,.58c.16,8.07,4.94,19.93,9.3,27.09l9.39,13.5c5.85,7.99,12.35,17.13,14.49,21.24,3.87,7.33,6.92,15.4,7,16.3l2.31,.16c0-.16,3.71-16.63,8.23-29.73,9.96-28.33,5.93-54.02-12.1-76.33l-1.89,1.24Zm4.03,84.73c1.15-.16,1.56-1.4,1.65-1.65h0c0-.91-2.14-24.7-2.14-24.7l1.81-29.23,.49-7.41c.08-1.24,.25-2.8,.25-4.69,0-2.72-.58-6.51-1.65-10.62,8.23,12.19,12.6,25.36,12.6,39.52,0,9.14-1.73,18.61-5.19,28.41-3.29,9.47-6.09,20.5-7.41,26.1-1.4-3.62-3.62-8.81-5.93-13.17-2.31-4.28-8.89-13.42-14.66-21.49l-9.3-13.42c-3.62-5.85-7.33-14.82-8.56-22.15,3.05,3.71,7.74,8.32,14.57,14.82l6.34,5.85c9.63,9.14,12.76,23.47,14.08,29.56l.82,2.96c.66,.99,1.4,1.4,2.22,1.32"/></g><g id="ad"><path class="ah" d="M496.67,105.07s-1.89-4.45-.66-22.73c1.24-18.36,1.4-43.31-27.26-59.45,7.33,11.77,8.48,13.83,10.87,23.47,2.39,9.55,5.19,24.95,9.22,33.6,1.65,4.28,2.8,7.58,2.06,7.99-.74,.49-1.07-.33-1.65-1.73-.58-1.48-6.75-14.41-18.53-22.4-11.94-8.07-22.64-16.14-26.76-24.21,1.98,15.15,7.9,20.42,13.83,27.91,6.42,8.15,29.31,24.95,33.27,30.47,4.03,5.6,5.6,7.08,5.6,7.08"/></g><g id="ae"><path class="ah" d="M467.76,23.55c7.41,11.86,8.48,13.75,10.79,23.06l1.73,7.58c2.06,9.14,4.36,19.52,7.49,26.27,.16,.41,.49,1.24,.74,1.89-2.63-4.78-8.15-13.42-17.21-19.52-11.28-7.58-22.31-15.81-26.35-23.71l-2.14,.66c1.81,13.42,6.59,19.27,11.78,25.53l2.31,2.88c3.46,4.45,11.36,11.03,18.86,17.46,6.51,5.43,12.6,10.54,14.41,13.09l5.76,7.16,1.81-1.32c-.08,0-1.81-4.61-.58-22.15,.99-15.15,2.88-43.23-27.83-60.52l-1.56,1.65Zm23.71,65.3c.49-.25,.74-.74,.74-1.48,0-1.32-.74-3.62-2.31-7.82-3.05-6.51-5.43-17.29-7.41-25.86l-1.81-7.66c-1.98-8.07-3.38-11.2-7.82-18.61,18.12,12.52,22.4,28.82,22.4,44.71,0,3.46-.16,6.83-.33,10.13-.33,4.61-.41,8.32-.41,11.28,0,3.29,.08,5.52,.33,7.33-1.4-1.73-2.8-3.46-2.8-3.46-1.98-2.72-7.9-7.74-14.82-13.5-7.16-6.01-15.23-12.85-18.61-17.04l-2.31-2.96c-4.28-5.27-7.99-10.13-10.13-19.02,5.02,6.34,13.17,12.68,23.88,19.84,12.19,8.32,18.12,21.82,18.2,21.9,.49,1.32,.82,2.22,1.73,2.47l.49,.25,.99-.49"/></g><g id="af"><path class="ah" d="M474.35,57.15s-4.12-19.19-11.86-30.47c-7.58-11.28-23.22-21-39.52-25.61,5.76,4.61,9.3,8.81,11.36,12.19,2.06,3.38,14.82,22.23,20.59,28.16,5.85,6.01,15.23,11.2,19.43,15.73"/></g><g id="ag"><path class="ah" d="M422.23,1.98c6.26,4.86,9.47,9.14,11.12,11.86,1.98,3.29,14.82,22.31,20.83,28.41l11.03,8.98,8.4,6.67,1.89-.99c-.16-.82-4.28-19.52-12.02-30.88-7.66-11.2-23.06-21.16-40.18-26.02l-1.07,1.98Zm44.3,47.43l-10.79-8.81c-5.76-5.85-18.53-24.87-20.42-27.91-1.73-2.8-4.36-5.68-7.41-8.65,14.49,5.19,27.17,13.67,33.68,23.3,5.6,8.23,9.39,20.92,10.87,26.84-2.47-2.06-5.93-4.78-5.93-4.78"/></g></g><path class="ah" d="M305.05,309.88c-82.06,0-148.81-66.76-148.81-148.81S222.99,12.25,305.05,12.25s148.82,66.76,148.82,148.82-66.76,148.81-148.82,148.81Zm0-293.38c-79.71,0-144.56,64.85-144.56,144.56s64.85,144.56,144.56,144.56,144.56-64.85,144.56-144.56S384.76,16.5,305.05,16.5Z"/><path class="ah" d="M305.05,277.88c-64.41,0-116.82-52.41-116.82-116.82s52.41-116.82,116.82-116.82,116.82,52.41,116.82,116.82-52.41,116.82-116.82,116.82Zm0-229.39c-62.07,0-112.57,50.5-112.57,112.57s50.5,112.57,112.57,112.57,112.57-50.5,112.57-112.57-50.5-112.57-112.57-112.57Z"/><path class="ah" d="M600.98,107.59c0,30.01-.11,60.03,.09,90.04,.04,6.18-1.81,11.33-5.4,16.12-.58,.78-1,1.86-1.05,2.83-1.31,26.59-.26,53.13,1.71,79.65,1.65,22.17,4.29,44.29,3.5,66.58-.12,3.32-.73,6.65-1.3,9.94-.68,3.9-3.12,6.08-7.03,6.82-4.01,.75-7.93,.72-11.86-.49-2.5-.77-4.24-2.27-4.8-4.75-.77-3.41-1.81-6.9-1.74-10.33,.32-14.95,.51-29.93,1.65-44.83,2.62-34.01,5.2-68,3.49-102.15-.06-1.2-.38-2.89-1.2-3.46-7.78-5.46-10.09-13.6-10.42-22.28-.53-13.8-.66-27.63-.47-41.44,.25-18.39,.74-36.79,1.55-55.17,.95-21.52,3.11-42.91,10.21-63.44,1.91-5.52,4.5-10.86,7.23-16.03,1.25-2.36,3.43-4.36,5.53-6.11,2.17-1.82,4.91-1.76,7.42-.51,2.44,1.21,2.91,3.47,2.91,6.02-.03,31-.02,61.99-.02,92.99Z"/><path class="ah" d="M28.53,44.4c0-11.2,.83-22.4,.83-33.6,0-1.33-.02-2.7,1.76-3.02,1.91-.34,2.78,.48,2.81,2.93,.12,8.42,.17,16.84,.27,25.26,.17,13.9,.36,27.8,.56,41.69,.04,3.13,.31,3.21,3.1,3.39,2.73,.17,2.84-1.46,2.86-3.41,.26-22.16,.53-44.31,.82-66.47,.01-.8-.1-1.86,.35-2.34,.56-.6,1.72-1.11,2.45-.93,.67,.17,1.52,1.25,1.59,2,.54,6.27,.95,12.55,1.33,18.84,1.28,21.63,2.58,43.25,3.76,64.89,.6,10.96-1.11,21.4-8.06,30.36-1.75,2.25-3.72,4.34-5.73,6.37-3.35,3.37-4.98,7.4-5.13,12.1-.95,31,.11,61.97,1.82,92.92,1.95,35.26,4.06,70.51,5.93,105.78,.42,7.91,.22,15.86,.06,23.79-.18,9.11-6.47,15.35-14.88,15.08-6.88-.22-12.89-5.29-13.43-12.26-.57-7.32-.76-14.72-.39-22.05,1.55-31.11,3.33-62.2,5.09-93.3,2.05-36.33,3.79-72.67,2.77-109.08-.15-5.34-1.81-9.88-5.78-13.56C3.51,120.74-.6,109.27,.07,96.24,1.55,67.58,3.39,38.94,5.06,10.3c.09-1.51,.53-2.56,2.26-2.54,2.09,.02,2.24,1.45,2.26,3.04,.19,17.5,.38,34.99,.59,52.49,.06,4.82,.25,9.65,.24,14.47,0,2.13,.35,3.35,2.93,3.34,2.49,0,3.04-1.09,3.06-3.28,.14-15.7,.34-31.4,.53-47.09,.08-6.62,.19-13.24,.25-19.87,.01-1.58,.1-3.03,2.19-3.1,2.26-.07,2.38,1.49,2.4,3.15,.26,22.24,.53,44.48,.8,66.72,.04,3.2,.29,3.35,3.29,3.42,2.1,.05,2.69-.88,2.69-2.81-.04-11.28-.02-22.56-.02-33.85,.28,0-.28,0,0,0Z"/></g><path class="ah" d="M305.05,309.63c-82.06,0-148.82-66.76-148.82-148.81S222.99,12,305.05,12s148.81,66.76,148.81,148.81-66.76,148.81-148.81,148.81Zm0-293.38c-79.71,0-144.56,64.85-144.56,144.56s64.85,144.56,144.56,144.56,144.56-64.85,144.56-144.56S384.76,16.25,305.05,16.25Z"/><path class="ah" d="M305.05,277.63c-64.42,0-116.82-52.41-116.82-116.82s52.41-116.82,116.82-116.82,116.82,52.41,116.82,116.82-52.41,116.82-116.82,116.82Zm0-229.39c-62.07,0-112.57,50.5-112.57,112.57s50.5,112.57,112.57,112.57,112.57-50.5,112.57-112.57-50.5-112.57-112.57-112.57Z"/><path class="ah" d="M305.05,245.64c-46.77,0-84.82-38.05-84.82-84.82s38.05-84.82,84.82-84.82,84.82,38.05,84.82,84.82-38.05,84.82-84.82,84.82Zm0-165.4c-44.43,0-80.57,36.14-80.57,80.57s36.14,80.57,80.57,80.57,80.57-36.14,80.57-80.57-36.14-80.57-80.57-80.57Z"/><path class="ah" d="M305.05,213.64c-29.13,0-52.83-23.7-52.83-52.83s23.7-52.83,52.83-52.83,52.83,23.7,52.83,52.83-23.7,52.83-52.83,52.83Zm0-101.41c-26.79,0-48.58,21.79-48.58,48.58s21.79,48.58,48.58,48.58,48.58-21.79,48.58-48.58-21.79-48.58-48.58-48.58Z"/><g><path class="ah" d="M305.05,142.11c.72,0,1.43,.05,2.13,.13V14.13h-4.25V142.24c.7-.08,1.41-.13,2.13-.13Z"/><path class="ah" d="M319.69,149.18l90.59-90.59-3.01-3.01-90.59,90.59c1.11,.89,2.12,1.89,3.01,3.01Z"/><path class="ah" d="M293.42,146.18L202.83,55.59l-3.01,3.01,90.59,90.59c.89-1.11,1.89-2.12,3.01-3.01Z"/><path class="ah" d="M286.34,160.82c0-.72,.05-1.43,.13-2.13H158.36v4.25h128.11c-.08-.7-.13-1.41-.13-2.13Z"/><path class="ah" d="M316.68,175.45l90.59,90.59,3.01-3.01-90.59-90.59c-.89,1.11-1.89,2.12-3.01,3.01Z"/><path class="ah" d="M323.63,158.69c.08,.7,.13,1.41,.13,2.13s-.05,1.43-.13,2.13h128.11v-4.25h-128.11Z"/><path class="ah" d="M305.05,179.52c-.72,0-1.43-.05-2.13-.13v128.11h4.25V179.39c-.7,.08-1.41,.13-2.13,.13Z"/><path class="ah" d="M290.41,172.45l-90.59,90.59,3.01,3.01,90.59-90.59c-1.11-.89-2.12-1.89-3.01-3.01Z"/></g><path class="ah" d="M305.05,181.65c-11.49,0-20.83-9.35-20.83-20.83s9.35-20.83,20.83-20.83,20.83,9.35,20.83,20.83-9.35,20.83-20.83,20.83Zm0-37.42c-9.14,0-16.58,7.44-16.58,16.58s7.44,16.58,16.58,16.58,16.58-7.44,16.58-16.58-7.44-16.58-16.58-16.58Z"/></svg>