<?xml version="1.0" encoding="UTF-8" standalone="no"?>
<!DOCTYPE svg PUBLIC "-//W3C//DTD SVG 1.1//EN" "http://www.w3.org/Graphics/SVG/1.1/DTD/svg11.dtd">
<svg width="100%" height="100%" viewBox="0 0 440 440" version="1.1" xmlns="http://www.w3.org/2000/svg" xmlns:xlink="http://www.w3.org/1999/xlink" xml:space="preserve" xmlns:serif="http://www.serif.com/" style="fill-rule:evenodd;clip-rule:evenodd;stroke-linejoin:round;stroke-miterlimit:2;">
    <g id="Artboard2" transform="matrix(1.009538,0,0,1.004173,573.967725,219.082913)">
        <rect x="-568.545" y="-218.172" width="435.843" height="438.171" style="fill:none;"/>
        <g transform="matrix(0.990552,0,0,0.995844,-731.368491,-218.086084)">
            <path d="M372.27,233.493C372.276,233.491 372.293,233.49 372.317,233.487C372.265,233.502 372.244,233.502 372.27,233.493Z" style="fill:rgb(58,112,184);fill-rule:nonzero;"/>
            <path d="M377.436,201.387C377.449,201.389 377.487,201.406 377.538,201.457C377.478,201.417 377.442,201.391 377.436,201.387Z" style="fill:rgb(58,112,184);fill-rule:nonzero;"/>
            <path d="M414.392,259.611C414.617,259.666 414.7,259.689 414.562,259.676C414.509,259.67 414.452,259.649 414.392,259.611Z" style="fill:rgb(58,112,184);fill-rule:nonzero;"/>
            <path d="M221.418,247.203C221.418,247.203 220.771,244.712 220.4,241.057C220.112,238.213 219.151,232.762 218.689,228.07C218.648,226.778 218.635,225.472 218.635,224.18C218.635,206.95 220.591,191.905 224.514,174.829C225.275,178.202 227.882,202.738 229.378,221.79C231.01,242.379 256.234,258.539 248.892,259.171C232.967,260.541 228.707,256.901 227.923,253.629C227.16,250.447 225.274,248.138 222.092,247.375L221.418,247.203Z" style="fill:white;fill-rule:nonzero;"/>
            <path d="M291.821,154.432C290.698,163.412 284.083,176.208 272.044,198.833C260.006,221.457 253.131,238.213 253.131,238.213C253.131,238.213 245.393,224.808 245.393,218.94C245.393,213.072 250.542,208.053 250.542,208.053L250.542,197.164C266.881,189.614 271.872,158.33 268.434,156.648C266.075,155.512 247.114,148.574 236.513,142.116C253.802,111.869 280.063,83.262 311.591,68.966C327.368,74.59 336.523,74.838 336.523,74.838C332.223,64.784 340.824,63.101 340.824,63.101L352.46,80.922C350.173,75.355 348.806,69.458 348.159,65.273C347.785,62.9 347.627,60.742 347.67,58.772C347.828,40.606 362.844,38.031 367.475,35.457C373.488,32.106 373.488,27.92 373.488,27.92C373.488,27.92 388.834,37.298 392.876,22.052L400.845,5.296C416.32,-4.758 407.014,5.296 407.014,5.296C401.865,8.647 398.428,27.086 398.428,27.086C419.959,31.113 431.911,16.514 432.774,15.407C432.616,15.666 431.81,16.975 427.654,23.735C422.49,32.106 433.68,35.457 433.68,35.457C407.82,31.271 390.689,35.457 366.613,42.993C360.299,44.978 356.588,48.056 354.574,51.638C353.481,53.594 352.891,55.679 352.661,57.837C351.712,66.798 356.991,76.722 358.012,80.706C359.738,87.408 394.329,97.462 394.329,97.462C383.829,100.669 393.451,112.334 394.271,113.312C393.71,112.78 389.352,108.608 382.951,100.813C380.578,97.922 377.199,95.736 373.775,94.111C367.245,91.004 360.6,89.911 360.6,89.911C360.6,89.911 365.361,99.131 370.511,105.085C375.674,111.025 382.951,125.94 393.264,139.345C393.264,139.345 399.291,156.101 380.363,156.949C380.363,156.949 373.559,157.842 368.396,148.636C368.396,148.636 358.874,143.545 351.137,139.345C343.398,135.159 330.497,123.423 330.497,123.423C325.348,119.238 322.971,121.923 311.795,123.591C311.795,123.591 298.699,142.272 293.156,142.272C287.614,142.272 264.057,125.644 264.057,125.644C264.057,125.644 293.252,142.997 291.821,154.432Z" style="fill:white;fill-rule:nonzero;"/>
            <path d="M457.06,184.939C457.06,184.939 462.162,178.506 464.489,173.204C464.972,172.103 465.962,172.201 466.361,173.392C467.645,177.222 470.106,183.59 472.646,184.939C472.646,184.939 468.481,185.699 465.887,180.251C465.427,179.285 464.578,179.186 464.112,180.145C463.147,182.134 461.131,184.653 457.06,184.939Z" style="fill:white;fill-opacity:0.72;fill-rule:nonzero;"/>
            <path d="M451.191,222.607C454.842,217.595 460.825,208.8 463.445,201.697C463.896,200.474 464.971,200.549 465.374,201.818C467.004,206.958 470.485,216.984 474.491,222.747C475.361,223.999 474.656,226.394 473.534,225.973C470.62,224.882 466.985,222.178 464.444,215.658C463.999,214.513 462.998,214.45 462.563,215.607C461.322,218.911 458.437,223.997 452.111,225.904C450.973,226.247 450.301,223.831 451.191,222.607Z" style="fill:white;fill-opacity:0.72;fill-rule:nonzero;"/>
            <path d="M454.713,201.216C457.67,197.094 461.994,190.595 464.091,185.174C464.549,183.991 465.604,184.11 466.003,185.351C467.325,189.465 469.87,196.655 472.82,201.304C473.684,202.664 472.839,204.979 471.697,204.417C469.533,203.351 467.062,201.148 465.228,196.664C464.774,195.553 463.815,195.532 463.363,196.646C462.321,199.217 460.127,202.813 455.704,204.469C454.549,204.901 453.804,202.481 454.713,201.216Z" style="fill:white;fill-opacity:0.72;fill-rule:nonzero;"/>
            <path d="M452.465,245.751C453.9,245.637 455.337,245.508 456.77,245.416C459.258,242.691 460.709,239.638 461.495,237.405C461.923,236.188 462.962,236.211 463.406,237.411C464.616,240.675 466.048,243.153 467.555,245.108C467.943,245.113 468.332,245.139 468.72,245.15C470.809,245.071 472.899,244.997 474.989,244.917C470.318,237.263 466.359,225.69 464.586,220.024C464.182,218.738 463.077,218.671 462.639,219.925C459.798,228.08 453.181,238.183 448.498,244.767C448.615,245.236 448.705,245.591 448.78,245.888C450.008,245.845 451.236,245.795 452.465,245.751Z" style="fill:white;fill-opacity:0.72;fill-rule:nonzero;"/>
            <path d="M478.805,194.263C478.805,194.263 483.038,188.91 485.022,184.448C485.42,183.554 486.353,183.618 486.674,184.571C487.764,187.818 489.824,193.131 491.95,194.263C491.95,194.263 488.435,194.907 486.247,190.295C485.884,189.528 485.08,189.556 484.703,190.31C483.87,191.975 482.17,194.026 478.805,194.263Z" style="fill:white;fill-opacity:0.72;fill-rule:nonzero;"/>
            <path d="M473.379,226.777C476.368,222.708 481.803,214.853 484.152,208.54C484.517,207.561 485.522,207.61 485.843,208.62C487.286,213.176 490.398,222.116 493.934,226.837C494.642,227.782 494.034,229.418 493.083,229.106C490.581,228.284 487.324,226.075 485.069,220.338C484.705,219.411 483.765,219.366 483.41,220.299C482.318,223.162 479.789,227.52 474.25,229.022C473.319,229.274 472.699,227.701 473.379,226.777Z" style="fill:white;fill-opacity:0.72;fill-rule:nonzero;"/>
            <path d="M476.349,208.691C478.812,205.296 482.789,199.439 484.691,194.574C485.062,193.625 486.051,193.691 486.368,194.678C487.553,198.365 489.868,204.887 492.518,208.745C493.195,209.73 492.495,211.327 491.561,210.928C489.653,210.113 487.382,208.28 485.72,204.242C485.353,203.352 484.431,203.423 484.061,204.311C483.123,206.561 481.158,209.652 477.209,210.94C476.287,211.241 475.675,209.621 476.349,208.691Z" style="fill:white;fill-opacity:0.72;fill-rule:nonzero;"/>
            <path d="M478.937,244.927C480.75,242.789 481.886,240.483 482.51,238.734C482.858,237.758 483.832,237.771 484.193,238.738C485.139,241.274 486.242,243.269 487.409,244.85C488.292,245.259 489.109,245.637 489.933,246.019C491.109,246.06 492.283,246.133 493.458,246.202C493.806,245.762 493.906,244.986 493.568,244.408C489.805,237.987 486.643,228.683 485.179,224.017C484.86,223.001 483.828,222.952 483.478,223.949C481.032,230.916 475.394,239.498 471.445,245.048C473.216,244.981 474.986,244.919 476.756,244.851C477.518,244.823 478.238,244.86 478.937,244.927Z" style="fill:white;fill-opacity:0.72;fill-rule:nonzero;"/>
            <path d="M542.067,158.348C541.914,158.098 543.574,162.324 543.442,162.044C542.842,160.843 536.332,158.247 535.884,159.474C534.84,162.225 532.596,165.641 527.845,166.267C527.845,166.267 532.616,158.588 535.257,151.653L542.067,158.348Z" style="fill:white;fill-opacity:0.72;fill-rule:nonzero;"/>
            <path d="M552.51,223.197C549.094,221.716 542.232,215.554 538.958,207.53C538.366,206.071 537.013,206.057 536.604,207.598C535.289,212.255 532.077,219.421 524.34,222.241C523.057,222.711 522.039,220.242 522.914,218.705C526.827,211.989 533.859,199.001 536.647,188.704C537.076,187.104 538.5,187.114 539.052,188.719C541.075,194.718 548.615,205.515 553.013,213.164L552.51,223.197Z" style="fill:white;fill-opacity:0.72;fill-rule:nonzero;"/>
            <path d="M551.225,191.72C548.589,190.399 541.023,187.611 538.493,181.725C537.904,180.323 536.607,180.507 536.147,181.936C535.013,185.609 532.484,190.703 527.011,193.087C525.731,193.614 524.71,191.089 525.585,189.551C528.809,183.932 533.941,174.256 536.224,166.308C536.655,164.766 538.081,164.804 538.607,166.353C539.959,170.266 546.62,178.018 549.141,183.302L551.225,191.72Z" style="fill:white;fill-opacity:0.72;fill-rule:nonzero;"/>
            <path d="M530.455,249.858C534.083,245.659 535.982,240.692 536.896,237.167C537.302,235.57 538.676,235.525 539.27,237.041C540.836,241.029 542.565,244.147 544.351,246.574C545.979,247.348 547.461,249.777 549.015,250.496L551.511,239.151C547.01,230.016 541.43,219.324 539.434,213.41C538.882,211.805 537.411,211.798 537.008,213.425C534.346,223.916 527.877,236.932 522.857,246.115C522.185,247.334 521.551,248.47 520.94,249.533C524.114,249.591 527.285,249.699 530.455,249.858Z" style="fill:white;fill-opacity:0.72;fill-rule:nonzero;"/>
            <path d="M500.611,179.048C500.611,179.048 506.058,171.848 508.545,165.914C509.06,164.681 510.117,164.792 510.544,166.124C511.916,170.412 514.544,177.538 517.258,179.048C517.258,179.048 512.807,179.899 510.037,173.801C509.546,172.72 508.639,172.61 508.142,173.683C507.111,175.908 504.958,178.728 500.611,179.048Z" style="fill:white;fill-opacity:0.72;fill-rule:nonzero;"/>
            <path d="M494.343,221.209C498.241,215.598 504.632,205.755 507.43,197.804C507.912,196.436 509.06,196.52 509.49,197.94C511.23,203.693 514.948,214.915 519.227,221.365C520.156,222.766 519.403,225.447 518.205,224.976C515.093,223.754 511.211,220.728 508.497,213.43C508.021,212.15 506.952,212.079 506.488,213.373C505.163,217.072 502.082,222.765 495.325,224.899C494.11,225.283 493.39,222.579 494.343,221.209Z" style="fill:white;fill-opacity:0.72;fill-rule:nonzero;"/>
            <path d="M498.102,197.266C501.262,192.652 505.88,185.379 508.12,179.311C508.608,177.987 509.735,178.121 510.161,179.51C511.574,184.114 514.292,192.162 517.442,197.365C518.365,198.887 517.461,201.479 516.244,200.85C513.931,199.656 511.293,197.19 509.335,192.172C508.849,190.928 507.825,190.905 507.343,192.152C506.229,195.029 503.886,199.054 499.162,200.907C497.928,201.391 497.134,198.682 498.102,197.266Z" style="fill:white;fill-opacity:0.72;fill-rule:nonzero;"/>
            <path d="M500.161,246.774C502.864,243.712 504.502,240.289 505.346,237.771C505.804,236.408 506.914,236.435 507.388,237.778C509.118,242.67 511.262,246.057 513.476,248.442C515.601,248.573 517.723,248.735 519.844,248.915C520.078,248.472 520.32,248.039 520.591,247.651C515.237,239.166 510.648,225.014 508.647,218.317C508.218,216.878 507.037,216.803 506.57,218.207C503.535,227.335 496.468,238.642 491.466,246.011C491.473,246.046 491.478,246.066 491.487,246.1C494.381,246.232 497.271,246.45 500.161,246.774Z" style="fill:white;fill-opacity:0.72;fill-rule:nonzero;"/>
            <path d="M438.475,201.784C438.475,201.784 442.388,196.95 444.174,192.966C444.545,192.138 445.303,192.213 445.609,193.107C446.595,195.986 448.482,200.771 450.431,201.784C450.431,201.784 447.236,202.356 445.246,198.262C444.892,197.535 444.242,197.462 443.885,198.182C443.144,199.676 441.597,201.569 438.475,201.784Z" style="fill:white;fill-opacity:0.72;fill-rule:nonzero;"/>
            <path d="M433.973,230.091C436.773,226.324 441.363,219.715 443.374,214.377C443.72,213.459 444.544,213.515 444.852,214.468C446.102,218.331 448.773,225.866 451.846,230.196C452.513,231.137 451.972,232.937 451.112,232.62C448.877,231.8 446.089,229.768 444.139,224.868C443.798,224.009 443.03,223.961 442.697,224.83C441.745,227.314 439.532,231.136 434.678,232.569C433.806,232.826 433.29,231.011 433.973,230.091Z" style="fill:white;fill-opacity:0.72;fill-rule:nonzero;"/>
            <path d="M436.675,214.016C438.942,210.918 442.26,206.035 443.869,201.961C444.22,201.072 445.029,201.162 445.335,202.094C446.349,205.185 448.302,210.589 450.564,214.082C451.227,215.104 450.578,216.844 449.703,216.422C448.043,215.62 446.148,213.965 444.741,210.595C444.392,209.761 443.657,209.744 443.31,210.582C442.511,212.514 440.828,215.216 437.435,216.46C436.549,216.785 435.978,214.967 436.675,214.016Z" style="fill:white;fill-opacity:0.72;fill-rule:nonzero;"/>
            <path d="M439.054,246.199C440.449,244.44 441.373,242.616 441.877,241.21C442.206,240.296 443.003,240.314 443.344,241.216C444.073,243.146 444.914,244.686 445.801,245.985C447.72,245.918 449.64,245.854 451.56,245.785C448.269,240.069 445.524,232.143 444.248,228.15C443.938,227.183 443.091,227.133 442.756,228.075C440.62,234.078 435.716,241.469 432.138,246.42C434.444,246.347 436.749,246.276 439.054,246.199Z" style="fill:white;fill-opacity:0.72;fill-rule:nonzero;"/>
            <path d="M423.416,197.113C423.416,197.113 427.648,191.761 429.632,187.299C430.029,186.405 430.964,186.47 431.284,187.422C432.374,190.669 434.434,195.981 436.56,197.113C436.56,197.113 433.046,197.756 430.857,193.145C430.494,192.378 429.69,192.407 429.313,193.16C428.48,194.825 426.78,196.876 423.416,197.113Z" style="fill:white;fill-opacity:0.72;fill-rule:nonzero;"/>
            <path d="M417.989,229.62C420.978,225.552 426.413,217.699 428.762,211.387C429.127,210.408 430.133,210.457 430.452,211.467C431.895,216.022 435.008,224.961 438.545,229.681C439.252,230.625 438.644,232.261 437.692,231.949C435.19,231.127 431.933,228.918 429.679,223.182C429.315,222.256 428.376,222.211 428.02,223.143C426.928,226.006 424.399,230.364 418.86,231.865C417.929,232.116 417.309,230.545 417.989,229.62Z" style="fill:white;fill-opacity:0.72;fill-rule:nonzero;"/>
            <path d="M420.96,211.538C423.423,208.144 427.399,202.288 429.302,197.424C429.673,196.474 430.661,196.54 430.978,197.527C432.163,201.213 434.478,207.734 437.129,211.592C437.805,212.577 437.105,214.174 436.171,213.774C434.263,212.959 431.992,211.127 430.33,207.09C429.963,206.2 429.042,206.271 428.672,207.158C427.733,209.408 425.767,212.498 421.819,213.787C420.897,214.088 420.285,212.468 420.96,211.538Z" style="fill:white;fill-opacity:0.72;fill-rule:nonzero;"/>
            <path d="M424.442,246.665C425.742,244.861 426.602,243.024 427.12,241.575C427.468,240.6 428.441,240.613 428.803,241.578C429.529,243.523 430.358,245.087 431.227,246.449C433.363,246.382 435.5,246.315 437.636,246.244C434.118,239.889 431.181,231.296 429.789,226.861C429.47,225.845 428.438,225.796 428.088,226.792C425.783,233.357 420.655,241.331 416.764,246.878C419.324,246.809 421.883,246.74 424.442,246.665Z" style="fill:white;fill-opacity:0.72;fill-rule:nonzero;"/>
            <path d="M407.385,207.08C407.385,207.08 410.962,202.73 412.638,199.104C412.974,198.377 413.764,198.429 414.035,199.204C414.957,201.843 416.698,206.159 418.495,207.08C418.495,207.08 415.524,207.602 413.675,203.855C413.367,203.232 412.688,203.255 412.369,203.867C411.666,205.22 410.228,206.887 407.385,207.08Z" style="fill:white;fill-opacity:0.72;fill-rule:nonzero;"/>
            <path d="M402.798,233.499C405.325,230.193 409.918,223.811 411.904,218.681C412.212,217.885 413.062,217.925 413.332,218.745C414.552,222.448 417.182,229.712 420.172,233.549C420.77,234.316 420.257,235.646 419.452,235.392C417.337,234.724 414.585,232.929 412.678,228.267C412.371,227.514 411.577,227.478 411.276,228.236C410.354,230.562 408.217,234.103 403.534,235.324C402.748,235.529 402.223,234.251 402.798,233.499Z" style="fill:white;fill-opacity:0.72;fill-rule:nonzero;"/>
            <path d="M405.308,218.804C407.39,216.045 410.752,211.285 412.359,207.332C412.674,206.561 413.509,206.615 413.777,207.416C414.778,210.412 416.735,215.712 418.975,218.847C419.547,219.648 418.955,220.946 418.166,220.621C416.553,219.958 414.634,218.469 413.228,215.189C412.919,214.465 412.139,214.523 411.827,215.244C411.034,217.073 409.373,219.584 406.036,220.631C405.256,220.876 404.738,219.559 405.308,218.804Z" style="fill:white;fill-opacity:0.72;fill-rule:nonzero;"/>
            <path d="M408.447,247.067C409.427,245.694 410.106,244.317 410.515,243.215C410.809,242.422 411.633,242.433 411.938,243.218C412.512,244.697 413.168,245.882 413.849,246.944C415.666,246.897 417.482,246.87 419.299,246.821C416.373,241.674 413.934,234.819 412.771,231.256C412.502,230.431 411.63,230.391 411.334,231.201C409.436,236.397 405.254,242.72 401.997,247.213C404.147,247.167 406.297,247.118 408.447,247.067Z" style="fill:white;fill-opacity:0.72;fill-rule:nonzero;"/>
            <path d="M388.882,216.449C388.882,216.449 392.459,212.7 394.136,209.576C394.471,208.95 395.262,208.995 395.532,209.662C396.454,211.936 398.195,215.656 399.992,216.449C399.992,216.449 397.021,216.899 395.172,213.67C394.864,213.133 394.185,213.153 393.866,213.68C393.163,214.846 391.725,216.283 388.882,216.449Z" style="fill:white;fill-opacity:0.72;fill-rule:nonzero;"/>
            <path d="M384.295,239.213C386.822,236.364 391.415,230.865 393.401,226.445C393.709,225.759 394.559,225.793 394.829,226.5C396.049,229.69 398.679,235.949 401.669,239.255C402.266,239.916 401.754,241.063 400.949,240.843C398.834,240.268 396.081,238.722 394.176,234.704C393.868,234.056 393.074,234.024 392.773,234.677C391.851,236.682 389.713,239.733 385.031,240.784C384.245,240.961 383.721,239.861 384.295,239.213Z" style="fill:white;fill-opacity:0.72;fill-rule:nonzero;"/>
            <path d="M386.805,226.55C388.888,224.173 392.249,220.073 393.856,216.666C394.171,216.001 395.006,216.048 395.274,216.739C396.275,219.32 398.232,223.887 400.472,226.588C401.044,227.278 400.452,228.396 399.663,228.116C398.051,227.545 396.13,226.262 394.725,223.435C394.416,222.812 393.637,222.862 393.324,223.483C392.531,225.058 390.87,227.223 387.533,228.125C386.753,228.335 386.236,227.201 386.805,226.55Z" style="fill:white;fill-opacity:0.72;fill-rule:nonzero;"/>
            <path d="M392.129,247.438C392.433,247.003 392.969,246.999 393.292,247.411C395.118,247.379 396.943,247.323 398.769,247.286C396.766,243.572 395.15,239.607 394.268,237.281C393.999,236.569 393.127,236.534 392.831,237.233C391.462,240.464 388.897,244.206 386.352,247.495C388.277,247.468 390.203,247.47 392.129,247.438Z" style="fill:white;fill-opacity:0.72;fill-rule:nonzero;"/>
            <path d="M371.364,219.642C371.364,219.642 374.941,215.894 376.617,212.769C376.954,212.143 377.743,212.188 378.014,212.856C378.935,215.129 380.677,218.849 382.473,219.642C382.473,219.642 379.503,220.093 377.653,216.863C377.346,216.326 376.667,216.346 376.348,216.874C375.644,218.039 374.207,219.476 371.364,219.642Z" style="fill:white;fill-opacity:0.72;fill-rule:nonzero;"/>
            <path d="M366.777,242.407C369.303,239.557 373.897,234.058 375.883,229.638C376.191,228.951 377.041,228.987 377.311,229.694C378.531,232.883 381.161,239.143 384.151,242.449C384.749,243.11 384.235,244.256 383.43,244.036C381.316,243.461 378.563,241.915 376.658,237.898C376.35,237.249 375.556,237.218 375.255,237.87C374.333,239.875 372.195,242.926 367.513,243.978C366.726,244.155 366.203,243.054 366.777,242.407Z" style="fill:white;fill-opacity:0.72;fill-rule:nonzero;"/>
            <path d="M369.287,229.743C371.369,227.366 374.73,223.266 376.338,219.86C376.652,219.195 377.488,219.241 377.756,219.932C378.757,222.513 380.714,227.079 382.954,229.782C383.526,230.471 382.934,231.589 382.144,231.31C380.532,230.739 378.612,229.455 377.207,226.629C376.897,226.005 376.118,226.055 375.806,226.677C375.013,228.252 373.352,230.416 370.014,231.319C369.235,231.529 368.717,230.395 369.287,229.743Z" style="fill:white;fill-opacity:0.72;fill-rule:nonzero;"/>
            <path d="M379.773,247.559C378.461,244.812 377.402,242.193 376.75,240.474C376.481,239.762 375.608,239.728 375.313,240.426C374.35,242.699 372.779,245.207 371.059,247.643C373.964,247.625 376.868,247.59 379.773,247.559Z" style="fill:white;fill-opacity:0.72;fill-rule:nonzero;"/>
            <path d="M374.319,325.922C374.319,325.922 380.081,313.43 374.691,310.535C374.691,310.535 406.196,307.48 418.495,310.535C418.495,310.535 452.263,299.341 468.506,299.325C468.506,299.325 525.454,288.777 530.997,294.227C537.555,300.673 497.671,347.201 475.602,357.247C475.602,357.247 472.734,364.76 466.27,369.049C466.27,369.049 456.051,376.705 452.671,374.376C452.671,374.376 454.771,371.508 453.538,370.368C453.538,370.368 428.459,384.257 385.97,384.756L384.784,389.816C384.784,389.816 370.636,388.658 367.485,393.302C367.485,393.302 365.566,394.245 367.896,385.338L370.139,383.945C370.139,383.945 342.421,380.804 328.205,374.696C328.205,374.696 315.722,374.51 310.087,370.675C304.451,366.839 306.072,366.895 309.153,366.112C309.153,366.112 269.358,344.845 248.579,312.223C248.579,312.223 255.622,318.973 261.538,312.828C267.454,306.684 273.867,288.366 272.511,278.41C272.511,278.41 284.793,289.04 284.893,298.342C284.994,307.644 289.603,324.311 294.725,326.706C299.847,329.102 324.481,340.885 346.805,336.665C346.805,336.665 371.702,326.902 374.319,325.922Z" style="fill:white;fill-rule:nonzero;"/>
            <path d="M198.063,267.822L199.655,273.225L178.632,290.164L177.251,285.482L195.811,271.356L172.532,269.473L171.139,264.75L198.063,267.822Z" style="fill:white;fill-rule:nonzero;"/>
            <path d="M195.186,254.407L170.678,259.115L169.811,254.606L194.319,249.898L195.186,254.407Z" style="fill:white;fill-rule:nonzero;"/>
            <path d="M191.803,225.519L173.567,241.107L192.992,239.447L193.383,244.02L168.518,246.144L168.018,240.282L186.116,224.916L166.845,226.562L166.455,221.989L191.32,219.865L191.803,225.519Z" style="fill:white;fill-rule:nonzero;"/>
            <path d="M171.008,204.245L170.735,208.868L188.641,209.926L188.899,205.553C189.244,199.679 187.012,196.454 180.278,196.056C173.502,195.698 171.35,198.412 171.008,204.245ZM192.451,204.925L191.878,214.672L166.966,213.201L167.563,203.039C168.033,195.041 172.598,191.13 180.578,191.601C188.48,192.069 192.926,196.845 192.451,204.925Z" style="fill:white;fill-rule:nonzero;"/>
            <path d="M194.403,187.929L169.884,183.26L173.354,165.017L176.802,165.674L174.181,179.448L181.038,180.754L183.418,168.251L186.828,168.899L184.449,181.403L191.804,182.804L194.425,169.029L197.873,169.686L194.403,187.929Z" style="fill:white;fill-rule:nonzero;"/>
            <path d="M199.58,165.272L175.718,157.968L177.061,153.578L197.567,159.855L200.534,150.158L203.89,151.185L199.58,165.272Z" style="fill:white;fill-rule:nonzero;"/>
            <path d="M189.304,129.497L200.116,140.177L204.465,130.281L189.304,129.497ZM212.976,130.787L207.791,130.468L202.519,142.463L206.209,146.182L204.279,150.575L185.56,131.133L188.062,125.44L214.94,126.317L212.976,130.787ZM186.745,123.494C185.99,125.214 185.143,126.071 183.465,125.335C181.752,124.581 181.848,123.392 182.603,121.674C183.309,120.069 184.102,119.232 185.816,119.986C187.494,120.723 187.45,121.889 186.745,123.494ZM183.353,131.211C182.598,132.929 181.769,133.75 180.091,133.012C178.377,132.26 178.457,131.109 179.212,129.389C179.934,127.747 180.728,126.912 182.441,127.665C184.119,128.401 184.075,129.568 183.353,131.211Z" style="fill:white;fill-rule:nonzero;"/>
            <path d="M217.02,124.077L195.487,111.451L197.81,107.492L216.316,118.343L221.448,109.595L224.476,111.371L217.02,124.077Z" style="fill:white;fill-rule:nonzero;"/>
            <path d="M234.503,98.255L231.111,102.755L204.97,95.961L207.909,92.062L230.322,98.553L217.959,78.732L220.923,74.8L234.503,98.255Z" style="fill:white;fill-rule:nonzero;"/>
            <path d="M243.154,88.297L225.276,70.879L238.233,57.576L240.748,60.026L230.964,70.07L235.965,74.942L244.845,65.823L247.331,68.246L238.45,77.364L243.814,82.59L253.597,72.544L256.111,74.994L243.154,88.297Z" style="fill:white;fill-rule:nonzero;"/>
            <path d="M274.111,61.001L251.088,54.245L263.097,69.612L259.48,72.438L244.109,52.77L248.744,49.146L271.507,55.907L259.594,40.663L263.21,37.836L278.582,57.505L274.111,61.001Z" style="fill:white;fill-rule:nonzero;"/>
            <path d="M478.82,42.513C476.577,47.148 474.171,48.67 468.538,45.943C467.524,45.451 466.507,44.872 465.298,44.114L466.793,41.025C467.552,41.564 468.285,41.963 468.963,42.29C472.191,43.855 473.512,42.847 474.567,40.67L482.315,24.66L486.447,26.66L478.82,42.513Z" style="fill:white;fill-rule:nonzero;"/>
            <path d="M505.45,54.325C501.124,61.231 496.605,62.31 489.711,57.989C482.815,53.667 481.852,49.153 486.179,42.248L493.489,30.584L497.414,33.045L490.208,44.542C487.474,48.904 487.087,51.881 491.719,54.783C496.387,57.709 498.896,56.062 501.63,51.699L508.835,40.201L512.76,42.662L505.45,54.325Z" style="fill:white;fill-rule:nonzero;"/>
            <path d="M516.551,78.431L523.638,70.024L513.62,61.579L506.533,69.988L503.023,67.03L519.109,47.948L522.617,50.906L515.857,58.926L525.877,67.37L532.637,59.35L536.179,62.335L520.093,81.415L516.551,78.431Z" style="fill:white;fill-rule:nonzero;"/>
            <path d="M546.035,78.394L530.267,92.941L527.24,89.66L543.008,75.113L537.8,69.469L540.382,67.089L553.82,81.656L551.24,84.036L546.035,78.394Z" style="fill:white;fill-rule:nonzero;"/>
            <path d="M560.387,96.762L543.14,109.511L540.486,105.921L557.732,93.172L553.168,86.999L555.99,84.913L567.772,100.848L564.95,102.934L560.387,96.762Z" style="fill:white;fill-rule:nonzero;"/>
            <path d="M584.074,121.198L572.854,106.88L575.877,105.173L587.096,119.492L584.074,121.198ZM573.604,116.854L558.576,119.109L563.889,128.52L573.604,116.854ZM558.384,135.031L561.747,131.072L555.305,119.663L550.116,120.387L547.757,116.21L574.538,112.876L577.596,118.291L560.785,139.283L558.384,135.031Z" style="fill:white;fill-rule:nonzero;"/>
            <path d="M584.837,142.99L565.004,151.167L563.303,147.037L583.136,138.861L580.212,131.761L583.457,130.422L591.007,148.753L587.762,150.091L584.837,142.99Z" style="fill:white;fill-rule:nonzero;"/>
            <path d="M592.752,165.678L577.627,164.2L580.489,174.623L592.752,165.678ZM573.563,179.595L577.789,176.576L574.321,163.938L569.112,163.377L567.842,158.749L594.627,162.048L596.274,168.044L574.855,184.304L573.563,179.595Z" style="fill:white;fill-rule:nonzero;"/>
            <path d="M576.951,204.342L587.857,202.929L586.175,189.932L575.268,191.344L574.68,186.791L599.43,183.587L600.019,188.14L589.616,189.487L591.3,202.483L601.703,201.137L602.298,205.73L577.546,208.935L576.951,204.342Z" style="fill:white;fill-rule:nonzero;"/>
            <path d="M577.232,230.378L588.919,218.969L577.26,218.943L577.268,214.353L602.226,214.404L602.217,218.995L591.376,218.972L602.192,229.761L602.178,235.937L590.313,222.976L577.221,236.595L577.232,230.378Z" style="fill:white;fill-rule:nonzero;"/>
            <path d="M574.439,253.901L587.431,244.013L575.863,242.558L576.434,238.004L601.197,241.116L600.625,245.67L589.869,244.319L599.285,256.351L598.514,262.478L588.326,248.161L573.665,260.071L574.439,253.901Z" style="fill:white;fill-rule:nonzero;"/>
            <path d="M591.594,277.041L579.225,268.208L576.498,278.664L591.594,277.041ZM568.013,279.512L573.183,279.007L576.492,266.33L572.259,263.242L573.471,258.601L595.033,274.833L593.462,280.849L566.78,284.237L568.013,279.512Z" style="fill:white;fill-rule:nonzero;"/>
            <path d="M230.903,344.447L227.046,339.839L221.604,344.396L225.619,349.195C228.378,352.491 230.265,351.892 231.552,350.815C233.137,349.488 233.741,347.839 230.903,344.447ZM223.077,351.324L219.061,346.523L213.319,351.329L217.281,356.066C220.441,359.841 222.232,359.429 223.877,358.052C226.419,355.925 224.898,353.499 223.077,351.324ZM214.482,358.191L207.681,350.063L226.824,334.041L233.517,342.04C238.096,347.513 237.853,351.417 235.132,353.695C233.306,355.222 230.746,356.113 228.668,354.48C229.948,357.163 228.818,360.068 226.874,361.695C223.972,364.122 219.731,364.462 214.482,358.191Z" style="fill:white;fill-rule:nonzero;"/>
            <path d="M228.161,373.539L245.476,355.56L248.782,358.744L231.468,376.724L228.161,373.539Z" style="fill:white;fill-rule:nonzero;"/>
            <path d="M262.19,374.882C256.901,370.877 253.321,373.253 250.235,377.325C247.126,381.429 245.784,385.548 251.074,389.556C256.43,393.613 260,391.179 263.062,387.138C266.195,383.004 267.546,378.94 262.19,374.882ZM248.931,392.384C240.746,386.186 242.387,379.943 246.509,374.503C250.63,369.064 256.183,365.881 264.333,372.054C272.55,378.277 270.924,384.433 266.755,389.935C262.681,395.314 257.148,398.608 248.931,392.384Z" style="fill:white;fill-rule:nonzero;"/>
            <path d="M279.251,412.312C271.499,408.225 270.367,403.572 272.912,398.567L276.973,400.706C275.628,403.525 276.07,406.447 280.867,408.977C285.371,411.351 287.352,410.456 288.261,408.732C290.99,403.557 273.689,399.064 277.615,391.259C279.706,387.292 283.836,385.9 290.628,389.481C297.456,393.081 298.736,397.635 296.28,402.38L292.257,400.258C293.673,397.126 292.83,394.699 288.808,392.576C285.154,390.65 282.911,390.966 281.837,393.001C279.327,397.761 296.649,402.486 292.339,410.661C290.683,413.8 286.669,416.224 279.251,412.312Z" style="fill:white;fill-rule:nonzero;"/>
            <path d="M311.081,403.409L308.733,409.985L320.603,414.226L319.435,417.495L307.566,413.255L303.866,423.613L299.581,422.083L307.978,398.574L325.075,404.683L323.894,407.988L311.081,403.409Z" style="fill:white;fill-rule:nonzero;"/>
            <path d="M346.716,408.146C344.876,407.768 343.859,407.12 344.229,405.325C344.606,403.492 345.788,403.337 347.628,403.716C349.344,404.069 350.328,404.669 349.95,406.503C349.581,408.298 348.433,408.499 346.716,408.146ZM338.46,406.447C336.62,406.07 335.644,405.431 336.014,403.636C336.392,401.802 337.533,401.639 339.372,402.017C341.13,402.379 342.114,402.98 341.736,404.812C341.366,406.608 340.218,406.81 338.46,406.447ZM341.384,411.906L333.208,424.717L343.794,426.894L341.384,411.906ZM345.083,435.322L344.31,430.185L331.477,427.545L328.615,431.933L323.914,430.965L338.999,408.589L345.089,409.842L349.866,436.306L345.083,435.322Z" style="fill:white;fill-rule:nonzero;"/>
            <path d="M370.467,416.947L365.341,416.673L364.866,425.552L370.075,425.831C375.492,426.121 376.371,423.747 376.478,421.761C376.582,419.814 375.926,417.24 370.467,416.947ZM374.947,438.667L364.718,428.317L364.196,438.091L359.613,437.845L360.945,412.921L370.447,413.431C380.489,413.97 381.275,418.816 381.104,422.009C380.775,428.161 375.447,429.322 370.322,429.046L381.115,438.999L374.947,438.667Z" style="fill:white;fill-rule:nonzero;"/>
            <path d="M401.87,416.491C395.27,417.184 394.282,421.365 394.812,426.447C395.348,431.567 397.185,435.491 403.784,434.8C410.466,434.1 411.409,429.882 410.882,424.841C410.343,419.683 408.551,415.792 401.87,416.491ZM404.153,438.329C393.944,439.4 390.876,433.722 390.165,426.934C389.455,420.146 391.333,414.029 401.5,412.962C411.751,411.888 414.77,417.492 415.489,424.358C416.19,431.068 414.404,437.255 404.153,438.329Z" style="fill:white;fill-rule:nonzero;"/>
            <path d="M455.93,427.144L450.173,408.231L447.346,429.76L442.956,431.099L428.614,414.802L434.373,433.715L430.021,435.041L422.753,411.167L429.26,409.183L441.637,423.184C442.133,423.808 443.777,425.915 443.777,425.915C443.737,425.927 443.888,423.273 444.032,422.454L446.507,403.926L453.053,401.931L460.321,425.806L455.93,427.144Z" style="fill:white;fill-rule:nonzero;"/>
            <path d="M471.894,397.215L467.333,399.565L471.404,407.469L476.04,405.08C480.862,402.596 480.423,400.103 479.512,398.335C478.618,396.601 476.753,394.71 471.894,397.215ZM486.724,413.7L472.673,409.931L477.155,418.632L473.075,420.734L461.645,398.547L470.101,394.191C479.041,389.585 482.165,393.37 483.63,396.214C486.452,401.691 482.438,405.382 477.876,407.732L492.214,410.872L486.724,413.7Z" style="fill:white;fill-rule:nonzero;"/>
            <path d="M497.161,381.495L501.044,396.185L509.818,389.876L497.161,381.495ZM516.888,394.638L512.589,391.727L501.95,399.376L503.236,404.452L499.339,407.254L493.105,381L498.153,377.372L520.854,391.786L516.888,394.638ZM491.071,372.954C489.581,374.027 488.846,374.794 489.689,375.965C490.577,377.199 491.538,376.749 493.028,375.677C494.417,374.679 495.196,373.831 494.331,372.628C493.489,371.456 492.528,371.908 491.071,372.954ZM494.69,377.988C490.827,380.765 488.811,380.534 486.944,377.939C485.1,375.374 485.546,373.42 489.408,370.644C493.136,367.964 495.231,368.091 497.075,370.655C498.942,373.251 498.418,375.308 494.69,377.988Z" style="fill:white;fill-rule:nonzero;"/>
            <path d="M520.242,363.863L516.942,367.114L529.532,379.898L532.654,376.822C536.846,372.692 537.349,368.802 532.614,363.994C527.822,359.188 524.404,359.762 520.242,363.863ZM535.712,378.738L528.755,385.591L511.238,367.805L518.492,360.659C524.201,355.035 530.212,355.192 535.823,360.888C541.38,366.529 541.48,373.056 535.712,378.738Z" style="fill:white;fill-rule:nonzero;"/>
            <path d="M552.643,361.279L532.718,346.247L543.901,331.423L546.702,333.536L538.259,344.73L543.832,348.934L551.497,338.773L554.267,340.863L546.602,351.025L552.58,355.533L561.024,344.339L563.826,346.452L552.643,361.279Z" style="fill:white;fill-rule:nonzero;"/>
        </g>
    </g>
</svg>
