<?xml version="1.0" encoding="utf-8"?>
<!-- Generator: Adobe Illustrator 26.1.0, SVG Export Plug-In . SVG Version: 6.00 Build 0)  -->
<svg version="1.1" id="Ebene_1" xmlns="http://www.w3.org/2000/svg" xmlns:xlink="http://www.w3.org/1999/xlink" x="0px" y="0px"
	 viewBox="0 0 187.1 144.6" style="enable-background:new 0 0 187.1 144.6;" xml:space="preserve">
<style type="text/css">
	.st0{fill:#FFFFFF;}
</style>
<g>
	<g>
		<path class="st0" d="M25.8,107.8c0-1.2-0.5-2.2-1.4-2.8c-1-0.7-2.3-1-4-1c-1.8,0-3.1,0.3-4.1,0.8s-1.5,1.3-1.5,2.2
			c0,0.8,0.3,1.5,0.9,2c0.6,0.5,1.4,1,2.3,1.3c0.9,0.3,2.2,0.7,3.8,1c2.4,0.6,4.4,1.2,5.9,1.8c1.6,0.6,2.9,1.5,4,2.8
			c1.1,1.3,1.7,3,1.7,5.1c0,3.7-1.2,6.5-3.6,8.2c-2.4,1.7-5.7,2.6-9.9,2.6c-3.8,0-7-0.8-9.5-2.5c-2.5-1.7-3.8-4.2-3.8-7.6l0-1.1h7
			l0,0.8c0,1.4,0.5,2.5,1.6,3.3c1.1,0.8,2.5,1.2,4.4,1.2c2.2,0,3.8-0.4,4.8-1.1c1-0.7,1.5-1.6,1.5-2.7c0-0.8-0.3-1.5-0.9-2
			c-0.6-0.5-1.4-0.9-2.3-1.2c-0.9-0.3-2.2-0.6-3.8-1c-2.4-0.6-4.4-1.2-5.9-1.8c-1.5-0.6-2.9-1.6-4-2.9c-1.1-1.3-1.7-3.1-1.7-5.4
			c0-2.1,0.6-3.9,1.7-5.4c1.1-1.5,2.7-2.6,4.6-3.3c1.9-0.7,4.1-1.1,6.5-1.1c3.7,0,6.7,0.8,9,2.4c2.3,1.6,3.5,4,3.5,7.2v0.6h-6.9
			L25.8,107.8L25.8,107.8z"/>
		<path class="st0" d="M43.4,109.9c1.8-2.4,4.1-3.5,6.9-3.5c1.9,0,3.6,0.5,5.2,1.4c1.5,0.9,2.7,2.3,3.6,4.2c0.9,1.9,1.3,4.2,1.3,7
			v0.5c0,2.6-0.4,4.9-1.2,6.8c-0.8,1.8-2,3.2-3.4,4.2c-1.4,0.9-3,1.4-4.8,1.4c-1.5,0-2.9-0.3-4-1c-1.2-0.6-2.1-1.4-2.8-2.3V140h-7
			v-33.1h5.5L43.4,109.9z M52,112.7c-0.9-1-2-1.5-3.3-1.5c-1.3,0-2.4,0.5-3.3,1.5c-0.9,1-1.3,2.4-1.3,4.3v4c0,1.8,0.4,3.3,1.3,4.3
			c0.9,1,2,1.5,3.3,1.5c1.4,0,2.5-0.5,3.3-1.5c0.9-1,1.3-2.4,1.3-4.3v-4C53.3,115.1,52.9,113.7,52,112.7"/>
		<path class="st0" d="M78.6,112.2c-0.7-0.7-1.8-1-3.3-1c-0.9,0-1.7,0.1-2.3,0.5c-0.6,0.3-1.1,0.7-1.5,1.1c-0.3,0.4-0.5,0.9-0.5,1.2
			v0.4h-6.7c-0.1-0.4-0.1-0.7-0.1-0.9c0-1.4,0.5-2.6,1.4-3.7c0.9-1.1,2.2-1.9,3.8-2.5c1.6-0.6,3.5-0.9,5.6-0.9h1
			c3.4,0,6.1,0.7,7.8,2c1.8,1.4,2.7,3.2,2.7,5.6v11.3c0,0.6,0.1,1,0.4,1.3c0.3,0.3,0.6,0.4,1,0.4c0.3,0,0.7-0.1,1.1-0.2
			c0.4-0.1,0.7-0.2,0.9-0.3v4.3c-1.2,0.7-2.6,1-4.2,1c-1.8,0-3.1-0.4-4-1.1c-0.9-0.7-1.5-1.7-1.6-3c-2.2,2.7-5,4.1-8.2,4.1
			c-2.4,0-4.4-0.5-6-1.5c-1.6-1-2.3-2.9-2.3-5.7c0-2.3,0.7-4,2-5.2c1.3-1.2,3.1-2,5.4-2.4c2.3-0.4,5.3-0.6,8.9-0.6v-1.6
			C79.7,113.7,79.3,112.9,78.6,112.2 M72.9,121.3c-1.5,0.6-2.2,1.6-2.2,2.9c0,1.1,0.3,1.8,0.9,2.2c0.6,0.4,1.5,0.6,2.7,0.6
			c0.8,0,1.7-0.2,2.5-0.7c0.8-0.4,1.5-1.1,2.1-1.9c0.6-0.8,0.8-1.7,0.8-2.8v-1.3C76.6,120.4,74.4,120.7,72.9,121.3"/>
		<path class="st0" d="M100,125.4c0.8,1.1,2,1.6,3.3,1.6c1.5,0,2.6-0.5,3.5-1.4c0.8-0.9,1.3-2.3,1.3-4h6.6c0,2.3-0.5,4.2-1.5,5.7
			c-1,1.5-2.3,2.7-3.8,3.4c-1.6,0.7-3.3,1.1-5.3,1.1h-0.8c-3.6,0-6.4-1.1-8.5-3.2c-2.1-2.1-3.2-5.1-3.2-8.8v-1.4
			c0-2.5,0.5-4.6,1.5-6.4c1-1.8,2.4-3.2,4.2-4.1c1.8-1,3.8-1.4,6-1.4h0.8c1.9,0,3.6,0.4,5.3,1.2c1.6,0.8,2.9,2,3.9,3.5
			c1,1.5,1.5,3.4,1.5,5.5h-6.9c0-1.7-0.4-3-1.1-4c-0.7-1-1.8-1.5-3.3-1.5s-2.6,0.6-3.4,1.7c-0.8,1.1-1.2,2.6-1.2,4.3v4.3
			C98.8,123,99.2,124.4,100,125.4"/>
		<path class="st0" d="M140.6,127.6c-1,1.5-2.4,2.5-4,3.2c-1.7,0.7-3.5,1-5.5,1h-0.8c-2.3,0-4.3-0.5-6.1-1.4c-1.8-1-3.3-2.3-4.3-4.1
			c-1-1.8-1.6-3.9-1.6-6.4v-1.4c0-2.5,0.5-4.6,1.6-6.4c1-1.8,2.5-3.2,4.3-4.2c1.8-1,3.8-1.4,6.1-1.4h0.8c2,0,3.8,0.4,5.5,1.2
			c1.7,0.8,3,2,4.1,3.5c1,1.5,1.5,3.4,1.5,5.5v3.6h-16.8v1.2c0,1.6,0.5,2.9,1.4,4c0.9,1.1,2.2,1.6,3.8,1.6c1.5,0,2.6-0.4,3.5-1.2
			c0.9-0.8,1.3-2,1.3-3.6h6.7C142.2,124.3,141.7,126.1,140.6,127.6 M127,112.7c-0.9,1-1.4,2.2-1.5,3.8h9.7c0-1.6-0.4-2.9-1.1-3.9
			c-0.7-0.9-2-1.4-3.6-1.4C129,111.2,127.9,111.7,127,112.7"/>
		<path class="st0" d="M151.1,123.9c0,1.1,0.5,1.9,1.5,2.4c1,0.5,2.2,0.7,3.7,0.7c1.3,0,2.4-0.2,3.4-0.6c1-0.4,1.5-1,1.5-1.8
			c0-0.9-0.5-1.5-1.4-1.9c-0.9-0.4-2.4-0.7-4.3-1c-2-0.4-3.7-0.7-5-1.1s-2.4-1.1-3.4-2.1c-0.9-1-1.4-2.5-1.4-4.3
			c0-1.7,0.5-3.1,1.5-4.2c1-1.2,2.3-2,3.9-2.6c1.6-0.6,3.4-0.9,5.3-0.9h1c1.7,0,3.3,0.3,4.8,0.8c1.5,0.6,2.7,1.3,3.7,2.3
			c0.9,1,1.4,2.1,1.4,3.4c0,0.3,0,0.5-0.1,0.7c0,0.2,0,0.3,0,0.4h-6.1c0-1.9-1.5-2.9-4.4-2.9c-1.3,0-2.4,0.2-3.2,0.6
			c-0.8,0.4-1.2,0.9-1.2,1.6c0,0.8,0.4,1.4,1.3,1.7c0.9,0.3,2.2,0.6,4.1,0.9c2.1,0.4,3.9,0.7,5.2,1.1c1.3,0.4,2.5,1.1,3.5,2.1
			c1,1,1.5,2.5,1.5,4.4c0,2.9-1,5-3.1,6.3c-2.1,1.3-4.6,1.9-7.8,1.9h-1.6c-2,0-3.8-0.3-5.3-0.9c-1.6-0.6-2.8-1.5-3.7-2.6
			s-1.3-2.4-1.3-3.8l0-1h6.1L151.1,123.9L151.1,123.9z"/>
		<path class="st0" d="M119,6.9v5.5h-7.1V6.9C111.9,6.9,119,6.9,119,6.9z M112,41.3V16.9h7v24.5H112z"/>
		<path class="st0" d="M25.8,18.2c0-1.2-0.5-2.2-1.4-2.8c-1-0.7-2.3-1-4-1c-1.8,0-3.1,0.3-4.1,0.8c-1,0.6-1.5,1.3-1.5,2.2
			c0,0.8,0.3,1.5,0.9,2c0.6,0.5,1.4,1,2.3,1.3c0.9,0.3,2.2,0.7,3.8,1c2.4,0.6,4.4,1.2,5.9,1.8c1.6,0.6,2.9,1.6,4,2.8
			c1.1,1.3,1.7,3,1.7,5.1c0,3.7-1.2,6.5-3.6,8.2c-2.4,1.7-5.7,2.6-9.9,2.6c-3.8,0-7-0.8-9.5-2.5C7.9,38,6.7,35.4,6.7,32l0-1.1h7
			l0,0.8c0,1.4,0.5,2.5,1.6,3.3c1.1,0.8,2.5,1.2,4.4,1.2c2.2,0,3.8-0.4,4.8-1c1-0.7,1.5-1.6,1.5-2.7c0-0.8-0.3-1.5-0.9-2
			c-0.6-0.5-1.4-0.9-2.3-1.2c-0.9-0.3-2.2-0.6-3.8-1c-2.4-0.6-4.4-1.2-5.9-1.8c-1.5-0.6-2.9-1.6-4-2.9c-1.1-1.4-1.7-3.1-1.7-5.4
			c0-2.1,0.6-3.9,1.7-5.4c1.1-1.5,2.7-2.6,4.6-3.3c1.9-0.7,4.1-1.1,6.5-1.1c3.7,0,6.7,0.8,9,2.4c2.3,1.6,3.5,4,3.5,7.2v0.6h-6.9
			L25.8,18.2L25.8,18.2z"/>
		<path class="st0" d="M49.3,41.9c-1,0.2-1.9,0.3-2.8,0.3c-2.5,0-4.3-0.5-5.5-1.6c-1.2-1-1.9-2.8-1.9-5.3V22h-2.7v-4.8h2.9l2.4-7.8
			h4.3v7.8h5.7V22h-5.7v12.1c0,1.3,0.2,2.1,0.7,2.6c0.5,0.5,1.2,0.7,2,0.7c0.4,0,0.9-0.1,1.5-0.2c0.6-0.1,1.1-0.3,1.5-0.4v4.5
			C51.2,41.5,50.4,41.7,49.3,41.9"/>
		<path class="st0" d="M78.8,37c0.3,0.2,0.6,0.4,1,0.4c0.3,0,0.7-0.1,1-0.2c0.4-0.1,0.7-0.2,0.9-0.3v4.3c-1.2,0.7-2.6,1-4.2,1
			c-3.2,0-5-1.2-5.5-3.5c-2,2.3-4.5,3.5-7.4,3.5c-2.5,0-4.5-0.7-6.1-2c-1.6-1.4-2.4-3.3-2.4-5.8V17.2h7v15.6c0,1.2,0.4,2.3,1.1,3.1
			c0.7,0.8,1.6,1.2,2.8,1.2c1.2,0,2.3-0.5,3.2-1.4c0.9-0.9,1.3-2.1,1.3-3.4v-15h7V36C78.3,36.4,78.5,36.8,78.8,37"/>
		<path class="st0" d="M100.4,38.6c-1.8,2.4-4.1,3.6-6.9,3.6c-1.9,0-3.6-0.5-5.2-1.4c-1.5-0.9-2.8-2.3-3.6-4.2
			c-0.9-1.9-1.3-4.2-1.3-7v-0.5c0-2.7,0.4-4.9,1.2-6.8c0.8-1.8,2-3.2,3.4-4.2c1.4-0.9,3-1.4,4.8-1.4c1.5,0,2.9,0.3,4,1
			s2.1,1.4,2.8,2.3V7.2h7v34.5h-5.5L100.4,38.6z M91.7,35.9c0.9,1,2,1.5,3.3,1.5c1.3,0,2.4-0.5,3.3-1.5c0.9-1,1.3-2.4,1.3-4.3v-4
			c0-1.9-0.4-3.3-1.3-4.3c-0.9-1-2-1.5-3.3-1.5c-1.4,0-2.5,0.5-3.3,1.5c-0.9,1-1.3,2.4-1.3,4.3v4C90.4,33.4,90.8,34.9,91.7,35.9"/>
		<path class="st0" d="M148.1,29.5c0,7.3-5.4,12.7-12.5,12.7S123,36.8,123,29.5c0-7.4,5.4-12.7,12.5-12.7S148.1,22.1,148.1,29.5
			 M141.6,29.5c0-4.5-2.9-6.8-6.1-6.8c-3.2,0-6.1,2.3-6.1,6.8c0,4.5,2.9,6.8,6.1,6.8C138.7,36.3,141.6,34,141.6,29.5"/>
		<path class="st0" d="M53.9,87.4c-1,0.2-1.9,0.3-2.8,0.3c-2.5,0-4.3-0.5-5.5-1.6c-1.2-1.1-1.9-2.8-1.9-5.3V67.5H41v-4.8h2.9
			l2.4-7.8h4.3v7.8h5.7v4.8h-5.7v12.1c0,1.3,0.2,2.1,0.7,2.6c0.5,0.5,1.2,0.7,2,0.7c0.4,0,0.9-0.1,1.5-0.2c0.6-0.1,1.1-0.3,1.5-0.4
			v4.5C55.7,87,54.9,87.2,53.9,87.4"/>
		<path class="st0" d="M67.7,65.1c1.8-1.9,4.1-2.9,6.8-2.9c2.5,0,4.5,0.7,6.1,2c1.6,1.3,2.4,3.3,2.4,5.8v17.1h-7V71.7
			c0-1.2-0.4-2.3-1.1-3.1c-0.7-0.8-1.6-1.2-2.8-1.2c-1.2,0-2.3,0.5-3.2,1.4c-0.9,0.9-1.3,2.1-1.3,3.4v15h-7V52.7h7L67.7,65.1
			L67.7,65.1z"/>
		<path class="st0" d="M108.8,83.5c-1,1.5-2.4,2.5-4,3.2c-1.7,0.7-3.5,1-5.5,1h-0.8c-2.3,0-4.3-0.5-6.1-1.4c-1.8-1-3.2-2.3-4.3-4.1
			c-1-1.8-1.6-3.9-1.6-6.4v-1.4c0-2.5,0.5-4.6,1.6-6.4c1.1-1.8,2.5-3.2,4.3-4.2c1.8-1,3.8-1.4,6.1-1.4h0.8c2,0,3.8,0.4,5.5,1.2
			c1.7,0.8,3.1,2,4.1,3.5c1,1.5,1.5,3.4,1.5,5.5v3.6H93.6v1.1c0,1.6,0.5,2.9,1.4,4c0.9,1.1,2.2,1.6,3.9,1.6c1.5,0,2.6-0.4,3.5-1.2
			c0.9-0.8,1.3-2,1.3-3.6h6.7C110.3,80.2,109.8,82,108.8,83.5 M95.1,68.5c-0.9,1-1.4,2.2-1.5,3.8h9.7c0-1.6-0.4-2.9-1.1-3.9
			c-0.7-0.9-2-1.4-3.6-1.4C97.1,67.1,96,67.6,95.1,68.5"/>
		<path class="st0" d="M128.3,71.1c0-1-0.3-1.8-0.8-2.6c-0.5-0.7-1.4-1.1-2.6-1.1c-1.1,0-2,0.4-2.6,1.3c-0.6,0.9-0.9,2-0.9,3.3v15.1
			h-6.9V62.8h5.2l0.9,3.6c0.1-0.4,0.5-0.8,1-1.5c0.5-0.6,1.3-1.2,2.3-1.8c1-0.5,2.2-0.8,3.6-0.8c2.2,0,3.9,0.7,5.1,2.1
			c1.2,1.4,1.8,3.2,1.8,5.5c0,0.5,0,1-0.1,1.4c-0.1,0.5-0.1,0.8-0.1,1h-5.8L128.3,71.1L128.3,71.1z"/>
		<path class="st0" d="M21.5,53.9c8.8,0,16.7,6.4,16.7,16.9c0,10.4-7.9,16.9-16.7,16.9c-8.8,0-16.6-6.4-16.6-16.9
			C4.9,60.4,12.7,53.9,21.5,53.9 M21.5,81.3c4.9,0,9.9-3.4,9.9-10.5s-5-10.5-9.9-10.5c-4.8,0-9.8,3.4-9.8,10.5S16.7,81.3,21.5,81.3"
			/>
	</g>
</g>
</svg>
