<?xml version="1.0" encoding="UTF-8"?><svg id="a" xmlns="http://www.w3.org/2000/svg" viewBox="0 0 256 256"><defs><style>.b{fill:#fff;}</style></defs><path class="b" d="M222,113.44l-70.16-50.56c-5.49-3.96-12.64-4.5-18.66-1.42-6.03,3.09-9.77,9.21-9.77,15.98v34.76L54.98,62.88c-5.48-3.95-12.64-4.5-18.66-1.42-6.03,3.09-9.78,9.21-9.78,15.98v101.12c0,6.77,3.74,12.88,9.77,15.97,2.59,1.33,5.4,1.98,8.19,1.98,3.69,0,7.36-1.14,10.48-3.4l68.43-49.31v34.76c0,6.77,3.74,12.89,9.77,15.97,2.59,1.33,5.39,1.98,8.18,1.98,3.69,0,7.36-1.14,10.48-3.4l70.16-50.55c4.74-3.42,7.46-8.73,7.46-14.57,0-5.84-2.72-11.14-7.46-14.55Z"/></svg>