<?xml version="1.0" encoding="UTF-8"?><svg id="a" xmlns="http://www.w3.org/2000/svg" viewBox="0 0 256 256"><defs><style>.b{fill:#fff;}</style></defs><path class="b" d="M118.35,207.86c-3.43,0-6.72-1.3-9.83-3.88l-40.92-33.92c-3-2.5-6-5.01-9.06-7.44l-4.02-.04c-6.1-.08-12.43-.16-18.58,.08-8.93,.27-14.75-3.29-17.5-10.83l-.31-1.76,.24-43.27c1.7-5.38,6.19-11.74,17.06-11.38,7.13,.22,14.25,.12,21.36,.02l1.73-.03c12.21-10,24.33-20.04,36.45-30.08l13.38-11.09c3.69-3.05,8.04-4.48,12.21-3.88,3.81,.49,7.2,2.59,9.55,5.89,1.65,2.33,2.71,5.58,2.9,8.93,.2,3.59,.17,7.21,.13,10.83l-.03,4.18v111.82c0,8.56-5.1,14.73-12.99,15.73-.59,.08-1.18,.11-1.76,.11Zm-73.26-55.6c3.22,0,6.41,.04,9.56,.08l4.02,.05c2.19,.04,4.5,.86,6.21,2.21,3.13,2.49,6.2,5.05,9.26,7.6l40.9,33.92c1.82,1.5,2.9,1.58,3.77,1.48,1.11-.14,4.04-.51,4.04-5.58l.04-116.12c.04-3.38,.08-6.76-.11-10.13-.08-1.4-.49-2.84-1.01-3.59-.7-.98-1.56-1.55-2.55-1.68-1.28-.19-2.9,.42-4.36,1.62l-13.37,11.08c-12.12,10.04-24.25,20.1-36.41,30.1-1.73,1.43-4.14,2.3-6.44,2.34l-1.72,.02c-7.27,.09-14.53,.2-21.79-.03-4.38-.08-5.86,1.15-6.77,3.56v39.89c1.03,2.32,2.65,3.52,7.17,3.34,3.19-.13,6.39-.17,9.56-.17Z"/><path class="b" d="M196.52,216.29c-3.12,0-6.24-1.05-8.97-3.21-7.7-6.07-9.06-14.67-3.47-21.91,4.12-5.36,8.84-11.83,12.46-19.15,4.86-9.83,7.99-20.07,9.29-30.43,3.14-24.9-2.67-48.03-17.25-68.73-1.38-1.97-2.91-3.81-4.44-5.67l-1.43-1.74c-5.93-7.27-4.88-16.04,2.68-22.32,6.43-5.32,15.27-4.35,21.06,2.35,15.54,18,25.4,38.75,29.32,61.66,.91,5.3,1.38,10.67,1.73,14.6,.12,1.39,.23,2.62,.34,3.62l.03,.63c-.51,33.16-10.14,60.74-29.47,84.31-3.23,3.94-7.55,5.98-11.88,5.98Zm-1.9-166.35c-.85,0-1.76,.29-2.69,1.06-4.09,3.4-3.04,5.84-1.29,7.99l1.4,1.69c1.69,2.06,3.38,4.12,4.91,6.29,16.08,22.84,22.49,48.38,19.03,75.9-1.45,11.48-4.91,22.82-10.27,33.68-4.02,8.12-9.1,15.1-13.53,20.86-.9,1.17-3.02,3.9,1.71,7.63,2.12,1.68,4.59,1.23,6.6-1.22,17.99-21.95,26.61-46.64,27.14-77.68-.11-.99-.21-2.18-.32-3.5-.35-3.96-.78-8.88-1.61-13.77-3.6-21.05-12.68-40.13-26.98-56.7-.56-.65-2.14-2.23-4.1-2.23Z"/><path class="b" d="M163.77,183.5c-2.81,0-5.62-.81-8.11-2.5-7.78-5.3-9.97-14.29-5.19-21.38,3.12-4.64,6.91-10.88,8.6-17.95,3.7-15.45,1.11-29.23-7.93-42.11-1.65-2.35-3.45-4.92-4.35-8.04-1.93-6.77,2.02-14.41,9.18-17.78,6.24-2.96,13.43-1.13,17.88,4.48,11.76,14.83,17.75,31.67,17.83,50.05v.03c-.04,18.35-5.2,34.36-15.81,48.94-2.97,4.08-7.53,6.27-12.12,6.27Zm-1.65-100.93c-.6,0-1.2,.13-1.78,.41-2.59,1.23-4.26,3.79-3.7,5.72,.42,1.47,1.64,3.21,2.82,4.9,10.73,15.3,13.93,32.24,9.57,50.45-2.07,8.66-6.46,15.92-10.06,21.27-1.9,2.81,.03,5.57,2.45,7.22,2.04,1.39,4.63,.82,6.19-1.33,9.29-12.76,13.82-26.8,13.85-42.91-.06-16.03-5.32-30.74-15.62-43.73-1.03-1.3-2.36-2-3.72-2Z"/></svg>