<?xml version="1.0" encoding="UTF-8"?><svg id="a" xmlns="http://www.w3.org/2000/svg" viewBox="0 0 256 256"><defs><style>.b{fill:#fff;}</style></defs><path class="b" d="M222,113.44l-70.16-50.56c-5.49-3.96-12.64-4.5-18.66-1.42-6.03,3.09-9.77,9.21-9.77,15.98v34.76L54.98,62.88c-5.48-3.95-12.64-4.5-18.66-1.42-6.03,3.09-9.78,9.21-9.78,15.98v101.12c0,6.77,3.74,12.88,9.77,15.97,2.59,1.33,5.4,1.98,8.19,1.98,3.69,0,7.36-1.14,10.48-3.4l68.43-49.31v34.76c0,6.77,3.74,12.89,9.77,15.97,2.59,1.33,5.39,1.98,8.18,1.98,3.69,0,7.36-1.14,10.48-3.4l70.16-50.55c4.74-3.42,7.46-8.73,7.46-14.57,0-5.84-2.72-11.14-7.46-14.56Zm-102.85,20.82l-70.15,50.55c-2.4,1.73-5.38,1.96-8.04,.61-2.63-1.35-4.19-3.91-4.19-6.87V77.45c0-2.95,1.57-5.53,4.2-6.87,1.13-.58,2.34-.87,3.54-.87,1.57,0,3.13,.5,4.49,1.48l70.15,50.56c2.04,1.47,3.21,3.74,3.21,6.25s-1.17,4.8-3.21,6.27Zm96.87,0l-70.16,50.55c-2.41,1.74-5.41,1.95-8.03,.61-2.63-1.35-4.19-3.91-4.19-6.87V77.45c0-2.95,1.56-5.53,4.2-6.87,1.13-.58,2.34-.87,3.53-.87,1.57,0,3.13,.5,4.49,1.48l70.16,50.56c2.04,1.47,3.2,3.74,3.2,6.25s-1.16,4.8-3.2,6.27Z"/></svg>