<?xml version="1.0" encoding="UTF-8"?><svg id="a" xmlns="http://www.w3.org/2000/svg" viewBox="0 0 256 256"><defs><style>.b{fill:#fff;}</style></defs><path class="b" d="M184,96.96H72c-2.74,0-4.96-2.22-4.96-4.96s2.22-4.96,4.96-4.96h112c2.74,0,4.96,2.22,4.96,4.96s-2.22,4.96-4.96,4.96Z"/><path class="b" d="M184,132.96H72c-2.74,0-4.96-2.22-4.96-4.96s2.22-4.96,4.96-4.96h112c2.74,0,4.96,2.22,4.96,4.96s-2.22,4.96-4.96,4.96Z"/><path class="b" d="M184,168.96H72c-2.74,0-4.96-2.22-4.96-4.96s2.22-4.96,4.96-4.96h112c2.74,0,4.96,2.22,4.96,4.96s-2.22,4.96-4.96,4.96Z"/></svg>