<?xml version="1.0" encoding="UTF-8"?><svg id="a" xmlns="http://www.w3.org/2000/svg" viewBox="0 0 256 256"><defs><style>.b{fill:#fff;}</style></defs><path class="b" d="M171.3,57.92h-11.76c-9.9,0-17.95,8.05-17.95,17.95v104.25c0,9.9,8.06,17.95,17.95,17.95h11.76c9.9,0,17.95-8.06,17.95-17.95V75.87c0-9.9-8.06-17.95-17.95-17.95Z"/><path class="b" d="M96.46,57.92h-11.76c-9.9,0-17.95,8.05-17.95,17.95v104.25c0,9.9,8.06,17.95,17.95,17.95h11.76c9.9,0,17.95-8.06,17.95-17.95V75.87c0-9.9-8.05-17.95-17.95-17.95Z"/></svg>