<?xml version="1.0" encoding="UTF-8"?><svg id="a" xmlns="http://www.w3.org/2000/svg" viewBox="0 0 256 256"><defs><style>.b{fill:#fff;}</style></defs><path class="b" d="M114.71,25.47c.2,0,.41,0,.61,.01,5.27,.26,9.28,4.16,9.8,9.58,.11,1.13,.1,2.27,.11,3.4,0,26.24,0,52.47,0,78.71v2.53h9.55v-2.32c-.01-19.3-.02-38.59-.05-57.88,0-3.38,.35-6.65,2.04-9.66,2.11-3.75,5.87-5.89,10.13-5.89,.94,0,1.9,.1,2.88,.32,4.56,1,8.19,5.25,8.63,10.13,.11,1.19,.12,2.4,.12,3.6,0,25.9,0,51.81,.01,77.71,0,.8-.02,1.62,.14,2.39,.32,1.46,1.44,2.31,2.68,2.31,.6,0,1.23-.2,1.82-.62,.48-.35,.9-.8,1.32-1.22,7.08-6.98,14.15-13.98,21.25-20.94,1.57-1.54,3.22-3.02,4.97-4.35,2.45-1.86,5.55-2.92,8.59-2.92,3.88,0,7.64,1.74,9.78,5.78,2.42,4.58,2.68,9.34-.73,13.53-18.42,22.57-32.94,47.75-48.61,72.16-10.05,15.67-24.32,24.91-42.67,27.88-1.83,.3-3.68,.55-5.51,.82h-12.82c-4.16-.54-8.34-.91-12.46-1.63-12.88-2.27-23.68-8.02-30.97-19.29-4.6-7.1-7.32-14.98-8.54-23.3-.91-6.18-1.59-12.45-1.62-18.69-.17-30.11-.07-60.21-.08-90.33,0-3.03,.24-6.01,1.82-8.69,1.9-3.21,4.78-4.49,8.27-4.49,.23,0,.46,0,.7,.02,3.98,.19,7.01,2.04,8.3,5.81,.82,2.41,1.18,5.08,1.2,7.64,.12,13.29,.05,26.57,.05,39.86v2.5h9.27v-2.45c.02-21.03,0-42.06,.1-63.09,.01-2.43,.36-4.94,1.08-7.26,1.3-4.19,4.5-6.39,8.64-6.47,.07,0,.14,0,.21,0,4.07,0,7.49,2.22,8.81,6.28,.79,2.42,1.18,5.08,1.19,7.63,.11,20.9,.08,41.79,.1,62.69v2.54h9.53v-2.24c0-26.04,0-52.07,.02-78.11,0-1.79,.09-3.61,.41-5.37,.97-5.39,4.78-8.61,9.94-8.61m0-10.23c-10.13,0-18.17,6.84-20,17.02-.05,.25-.09,.49-.13,.74-2.89-1.66-6.26-2.57-9.86-2.57h-.4c-8.67,.16-15.65,5.4-18.22,13.67-.99,3.21-1.52,6.75-1.54,10.24,0,.53,0,1.06,0,1.6-2.44-1.19-5.2-1.9-8.2-2.04-.4-.02-.79-.02-1.18-.02-7.39,0-13.46,3.38-17.08,9.52-2.87,4.86-3.25,9.76-3.24,13.9v25.67c-.02,21.57-.03,43.13,.08,64.7,.03,5.86,.58,12.25,1.73,20.12,1.48,10.12,4.87,19.33,10.07,27.37,8.31,12.84,21.02,20.85,37.79,23.81,3.11,.55,6.15,.9,9.09,1.24,1.28,.15,2.56,.3,3.83,.46l.65,.08h14.22l.74-.11,1.72-.25c1.31-.19,2.62-.38,3.93-.59,21.35-3.46,38.05-14.38,49.65-32.45,3.56-5.55,7.07-11.15,10.57-16.74,11.55-18.44,23.5-37.51,37.35-54.47,5.77-7.07,6.45-16.1,1.85-24.78-3.72-7.03-10.76-11.22-18.83-11.22-5.28,0-10.52,1.78-14.77,5-1.93,1.46-3.88,3.16-5.94,5.19-3.29,3.21-6.57,6.44-9.84,9.67V58.01c0-1.5-.04-3.01-.17-4.5-.83-9.35-7.67-17.25-16.62-19.22-1.68-.37-3.39-.56-5.07-.56-4.17,0-8.09,1.12-11.45,3.18-.01-1-.05-1.92-.14-2.83-1-10.4-9.2-18.31-19.49-18.81-.38-.02-.75-.03-1.11-.03h0Z"/></svg>