<?xml version="1.0" encoding="UTF-8" standalone="no"?>
<!DOCTYPE svg PUBLIC "-//W3C//DTD SVG 1.1//EN" "http://www.w3.org/Graphics/SVG/1.1/DTD/svg11.dtd">
<svg width="100%" height="100%" viewBox="0 0 512 512" version="1.1" xmlns="http://www.w3.org/2000/svg" xmlns:xlink="http://www.w3.org/1999/xlink" xml:space="preserve" xmlns:serif="http://www.serif.com/" style="fill-rule:evenodd;clip-rule:evenodd;stroke-linejoin:round;stroke-miterlimit:2;">
    <g id="Background" transform="matrix(1,0,0,1,67,30)">
        <path d="M3.065,225.431C4.88,221.131 8.417,222.024 42.679,208.989C127.922,176.559 132.182,91.492 140.361,87.279C145.532,84.616 145.929,89.792 157.42,121.53C160.64,130.424 180.46,185.169 238.439,207.65C272.712,220.939 282.169,221.535 281.501,226.5C280.843,231.397 253.467,237.172 232.289,247.039C150.488,285.15 153.819,368.095 141.567,365.17C132.247,362.945 127.717,275.155 43.578,243.303C6.31,229.195 3.799,230.89 3.065,225.431Z" style="fill:none;stroke:white;stroke-width:15px;"/>
        <path d="M358.63,372.117C366.232,374.838 378.986,378.033 373.393,381.287C360.619,388.716 328.583,386.984 311.155,435.376C309.87,438.942 306.067,453.74 302.747,448.368C296.077,437.577 297.155,403.743 249.576,386.294C246.05,385.001 228.336,380.298 236.392,377.225C261.115,367.793 283.117,364.078 297.888,323.638C298.498,321.969 303.797,303.669 306.451,310.525C316.551,336.617 319.607,356.946 358.63,372.117Z" style="fill:none;stroke:white;stroke-width:15px;"/>
        <path d="M357.658,65.025C363.054,66.943 380.914,71.662 372.636,74.838C343.55,85.998 325.358,88.77 310.157,131.377C308.889,134.932 306.642,144.416 303.45,142.565C299.848,140.477 296.411,97.437 254.554,81.362C243.279,77.032 230.002,74.134 235.642,70.774C242.613,66.62 280.907,62.988 296.588,20.533C299.406,12.902 303.768,-3.582 306.727,4.407C317.966,34.758 321.642,49.983 357.658,65.025Z" style="fill:none;stroke:white;stroke-width:15px;"/>
    </g>
</svg>
