<?xml version="1.0" encoding="UTF-8"?><svg id="a" xmlns="http://www.w3.org/2000/svg" viewBox="0 0 256 256"><defs><style>.b{fill:#fff;}</style></defs><path class="b" d="M171.3,198.08h-11.76c-9.9,0-17.95-8.06-17.95-17.95V75.87c0-9.9,8.06-17.95,17.95-17.95h11.76c9.9,0,17.95,8.05,17.95,17.95v104.25c0,9.9-8.06,17.95-17.95,17.95Zm-11.76-129.92c-4.26,0-7.72,3.46-7.72,7.71v104.25c0,4.26,3.46,7.72,7.72,7.72h11.76c4.26,0,7.72-3.46,7.72-7.72V75.87c0-4.25-3.46-7.71-7.72-7.71h-11.76Z"/><path class="b" d="M96.46,198.08h-11.76c-9.9,0-17.95-8.06-17.95-17.95V75.87c0-9.9,8.06-17.95,17.95-17.95h11.76c9.9,0,17.95,8.05,17.95,17.95v104.25c0,9.9-8.05,17.95-17.95,17.95Zm-11.76-129.92c-4.26,0-7.72,3.46-7.72,7.71v104.25c0,4.26,3.46,7.72,7.72,7.72h11.76c4.25,0,7.71-3.46,7.71-7.72V75.87c0-4.25-3.46-7.71-7.71-7.71h-11.76Z"/></svg>