<?xml version="1.0" encoding="UTF-8"?><svg id="a" xmlns="http://www.w3.org/2000/svg" viewBox="0 0 256 256"><defs><style>.b{fill:#fff;}</style></defs><path class="b" d="M81.76,199.37c-3.08,0-6.16-.81-8.97-2.43-5.62-3.25-8.97-9.06-8.97-15.54V74.6c0-6.48,3.36-12.29,8.97-15.54,5.62-3.24,12.33-3.24,17.95,0l92.49,53.41c5.61,3.24,8.97,9.04,8.97,15.53,0,6.49-3.35,12.31-8.97,15.55l-92.48,53.39c-2.81,1.63-5.89,2.44-8.98,2.44Zm0-132.5c-1.33,0-2.65,.35-3.86,1.05-2.42,1.4-3.86,3.89-3.86,6.68v106.79c0,2.79,1.44,5.29,3.86,6.68,2.42,1.4,5.31,1.39,7.72,0l92.48-53.39c2.42-1.4,3.86-3.9,3.86-6.69s-1.44-5.29-3.86-6.67h0l-92.48-53.41c-1.21-.69-2.53-1.04-3.86-1.04Z"/></svg>