<?xml version="1.0" encoding="UTF-8"?><svg id="a" xmlns="http://www.w3.org/2000/svg" viewBox="0 0 256 256"><defs><style>.b{fill:#fff;}</style></defs><path class="b" d="M97.11,236.33c-4.39-.56-8.81-.96-13.16-1.72-13.62-2.4-25.02-8.48-32.73-20.38-4.86-7.51-7.74-15.83-9.02-24.61-.96-6.53-1.68-13.16-1.72-19.75-.17-31.81-.08-63.62-.09-95.44,0-3.21,.25-6.35,1.93-9.19,2.13-3.61,5.45-4.91,9.47-4.73,4.21,.19,7.4,2.16,8.77,6.14,.87,2.55,1.25,5.37,1.27,8.07,.12,14.04,.06,28.07,.06,42.11,0,.83,0,1.66,0,2.64h9.79c0-.93,0-1.76,0-2.58,.02-22.22,0-44.44,.11-66.66,.01-2.57,.38-5.23,1.14-7.67,1.37-4.43,4.76-6.76,9.13-6.83,4.4-.08,8.11,2.27,9.53,6.64,.83,2.56,1.25,5.36,1.26,8.06,.11,22.08,.08,44.16,.1,66.23,0,.84,0,1.68,0,2.68h10.07v-2.37c0-27.51,0-55.02,.02-82.53,0-1.89,.1-3.82,.43-5.67,1.07-5.92,5.37-9.36,11.15-9.08,5.57,.27,9.81,4.39,10.36,10.12,.12,1.19,.11,2.4,.11,3.59,0,27.72,0,55.44,0,83.16v2.68h10.09c0-.83,0-1.64,0-2.45-.02-20.39-.02-40.77-.06-61.16,0-3.57,.37-7.02,2.16-10.21,2.72-4.84,8.05-7.14,13.74-5.89,4.82,1.06,8.66,5.55,9.11,10.71,.11,1.26,.13,2.54,.13,3.8,0,27.37,0,54.74,.01,82.11,0,.84-.03,1.71,.15,2.52,.51,2.29,2.85,3.16,4.76,1.79,.51-.37,.95-.84,1.4-1.29,7.48-7.38,14.95-14.78,22.46-22.13,1.66-1.62,3.4-3.19,5.25-4.59,5.9-4.47,15.38-4.59,19.41,3.02,2.56,4.84,2.83,9.87-.78,14.29-19.46,23.84-34.81,50.45-51.36,76.24-10.62,16.55-25.7,26.32-45.09,29.45-1.94,.31-3.88,.58-5.83,.86h-13.54Z"/></svg>