<?xml version="1.0" encoding="UTF-8"?><svg id="a" xmlns="http://www.w3.org/2000/svg" viewBox="0 0 256 256"><defs><style>.b{fill:#fff;}</style></defs><path class="b" d="M169.66,99.12c0,12.21,.14,24.42-.03,36.62-.26,17.8-8.26,30.99-24.35,38.79-22.71,11.01-51.14-2.34-57.32-26.84-.96-3.81-1.54-7.83-1.56-11.76-.14-24.63-.11-49.25-.06-73.88,.04-18.63,10.61-34.26,28.1-40.04,23.42-7.73,47.06,4.74,53.57,28.3,1.08,3.91,1.5,8.1,1.57,12.18,.2,12.2,.07,24.41,.07,36.62Zm-70.26-.25c0,12.2-.06,24.4,.05,36.6,.03,2.95,.28,5.98,1,8.83,3.41,13.47,16.99,22.57,30.87,20.89,13.94-1.68,25.08-13.43,25.18-27.23,.19-26.03,.23-52.07-.02-78.1-.16-16.7-16.54-29.79-32.97-26.88-14.33,2.54-24,13.97-24.09,28.64-.08,12.41-.02,24.83-.02,37.24Z"/><path class="b" d="M191.95,130.3c-3.11,.08-5.71,2.28-6.11,5.45-.39,3.02-.38,6.09-.83,9.1-2.56,16.99-10.89,30.58-25.26,39.88-18.78,12.16-38.66,13.12-58.57,2.94-14.58-7.45-24.21-19.48-28.55-35.34-1.35-4.94-1.63-10.17-2.27-15.29-.55-4.38-3.06-6.92-6.93-6.73-3.78,.18-6.49,3.19-6.02,7.49,.69,6.32,1.05,12.84,2.94,18.83,8.06,25.58,25.26,41.91,51.27,48.75,3.19,.84,6.49,1.27,9.81,1.9v28.98h13.18v-28.85c4.74-1.04,9.4-1.7,13.83-3.09,18.66-5.85,32.72-17.44,42.02-34.66,5.53-10.24,8.09-21.28,8.19-32.88,.03-3.78-2.99-6.58-6.69-6.49Z"/></svg>