<?xml version="1.0" encoding="UTF-8"?><svg id="a" xmlns="http://www.w3.org/2000/svg" viewBox="0 0 256 256"><defs><style>.b{fill:#fff;}</style></defs><path class="b" d="M87.96,147.69c6.18,24.49,34.61,37.85,57.32,26.84,16.09-7.8,24.09-20.99,24.35-38.79,.18-12.2,.03-24.41,.03-36.62,0-12.21,.13-24.42-.07-36.62-.07-4.07-.49-8.27-1.57-12.18-6.51-23.56-30.15-36.03-53.57-28.3-17.49,5.78-28.06,21.4-28.1,40.04-.06,24.63-.08,49.25,.06,73.88,.02,3.93,.6,7.94,1.56,11.76Z"/><path class="b" d="M191.95,130.3c-3.11,.08-5.71,2.28-6.11,5.45-.39,3.02-.38,6.09-.83,9.1-2.56,16.99-10.89,30.58-25.26,39.88-18.78,12.16-38.66,13.12-58.57,2.94-14.58-7.45-24.21-19.48-28.55-35.34-1.35-4.94-1.63-10.17-2.27-15.29-.55-4.38-3.06-6.92-6.93-6.73-3.78,.18-6.49,3.19-6.02,7.49,.69,6.32,1.05,12.84,2.94,18.83,8.06,25.58,25.26,41.91,51.27,48.75,3.19,.84,6.49,1.27,9.81,1.9v28.98h13.18v-28.85c4.74-1.04,9.4-1.7,13.83-3.09,18.66-5.85,32.72-17.44,42.02-34.66,5.53-10.24,8.09-21.28,8.19-32.88,.03-3.78-2.99-6.58-6.69-6.49Z"/></svg>