<?xml version="1.0" encoding="UTF-8"?><svg id="a" xmlns="http://www.w3.org/2000/svg" viewBox="0 0 256 256"><defs><style>.b{fill:#fff;}</style></defs><path class="b" d="M141.98,46.48c1.31,0,2.61,.5,3.62,1.5l76.28,76.28s.11,.06,.15,.1c1.01,1,1.5,2.32,1.5,3.64,0,1.32-.49,2.64-1.5,3.64-.04,.04-.1,.06-.15,.1l-76.28,76.28c-1,1-2.3,1.5-3.62,1.5s-2.61-.5-3.62-1.5c-2-1.99-2-5.24,0-7.23l67.69-67.69H37.6c-2.83,0-5.12-2.29-5.12-5.12s2.29-5.12,5.12-5.12H206L138.36,55.21c-2-1.99-2-5.24,0-7.23,1-1,2.31-1.5,3.62-1.5m0-10.2c-4.09,0-7.94,1.59-10.83,4.49-2.89,2.88-4.49,6.73-4.49,10.83s1.6,7.95,4.5,10.84l50.21,50.21H37.6c-8.45,0-15.32,6.87-15.32,15.32s6.87,15.32,15.32,15.32H181.42l-50.27,50.27c-2.89,2.88-4.49,6.73-4.49,10.83s1.6,7.95,4.5,10.84c2.88,2.88,6.73,4.48,10.82,4.48s7.94-1.59,10.83-4.49l75.8-75.8c.21-.18,.41-.36,.61-.56,2.91-2.9,4.51-6.76,4.5-10.87,0-4.11-1.59-7.97-4.5-10.87-.2-.19-.4-.38-.61-.56L152.81,40.77c-2.9-2.9-6.74-4.49-10.83-4.49h0Z"/></svg>