<?xml version="1.0" encoding="UTF-8" standalone="no"?>
<!DOCTYPE svg PUBLIC "-//W3C//DTD SVG 1.1//EN" "http://www.w3.org/Graphics/SVG/1.1/DTD/svg11.dtd">
<svg width="100%" height="100%" viewBox="0 0 666 676" version="1.1" xmlns="http://www.w3.org/2000/svg" xmlns:xlink="http://www.w3.org/1999/xlink" xml:space="preserve" xmlns:serif="http://www.serif.com/" style="fill-rule:evenodd;clip-rule:evenodd;stroke-linejoin:round;stroke-miterlimit:2;">
    <g id="Artboard1" transform="matrix(1,0,0,1,-62.589404,-52.249243)">
        <rect x="62.589" y="52.249" width="665.595" height="675.712" style="fill:none;"/>
        <clipPath id="_clip1">
            <rect x="62.589" y="52.249" width="665.595" height="675.712"/>
        </clipPath>
        <g clip-path="url(#_clip1)">
            <g transform="matrix(1,0,0,1,0.589404,0.249243)">
                <path d="M429.563,164.064C414.094,85.639 413.532,75.948 337.594,52.249C323.692,68.022 327.896,73.776 307,79C301.45,80.388 309.008,94.664 326,89C328.419,88.194 361.719,96.438 369,111C375.17,123.341 377.157,124.843 367,135C355.277,146.723 362.724,160.241 347,155C335.645,151.215 334.741,157.37 324,152C264.146,122.073 272.887,111.887 247,86C244.486,83.486 237.296,87.34 238,81C240.174,61.434 231.26,78.479 231,79C227.3,86.4 223.945,86.945 230,93C232.333,95.333 234.667,97.667 237,100C246.321,109.321 247.152,107.152 256,116C271.438,131.438 265.774,135.245 281.851,150.501C101.218,184.027 104.815,263.37 70,333C54.449,364.103 65.756,483.513 82,516C87.854,527.709 142.333,636.667 173,652C180.537,655.768 260.437,750.366 452,723C715.552,685.35 804.197,378.197 658,232C635,209 574.683,178.842 567,175C565.288,174.144 565.866,173.537 567.826,151.092C578.216,151.64 693.773,164.155 623,150C568.617,139.123 567.873,134.782 495,153C494.409,153.148 495.208,153.597 488,156C459.508,165.497 459.352,162.422 429.563,164.064ZM535.904,164.974C537.369,163.817 553.263,151.263 557,155C562.242,160.242 560.307,160.999 562,172C559.88,171.576 560.147,171.439 535.904,164.974ZZZ" style="fill:white;"/>
            </g>
        </g>
    </g>
</svg>
