<?xml version="1.0" encoding="UTF-8"?><svg id="a" xmlns="http://www.w3.org/2000/svg" viewBox="0 0 256 256"><defs><style>.b{fill:#fff;}</style></defs><path class="b" d="M130.61,55.21c-2.35-3.31-5.74-5.4-9.55-5.89-4.17-.61-8.52,.82-12.21,3.88l-13.38,11.09c-12.12,10.04-24.23,20.07-36.45,30.08l-1.73,.03c-7.11,.09-14.24,.19-21.36-.02-10.88-.26-15.37,6.01-17.06,11.38l-.24,43.27,.31,1.76c2.75,7.53,8.57,11.19,17.5,10.83,6.15-.24,12.48-.16,18.58-.08l4.02,.04c3.07,2.43,6.06,4.94,9.06,7.44l40.92,33.92c3.11,2.58,6.41,3.88,9.83,3.88,.59,0,1.17-.04,1.76-.11,7.89-1,12.98-7.18,12.98-15.73V79.15l.04-4.18c.04-3.62,.08-7.23-.13-10.83-.19-3.36-1.25-6.6-2.9-8.93Zm-7.25,135.76c0,5.07-2.93,5.44-4.04,5.58-.87,.11-1.95,.02-3.77-1.48l-40.9-33.92c-3.07-2.55-6.13-5.11-9.26-7.6-1.71-1.35-4.02-2.17-6.21-2.21l-4.02-.05c-3.15-.04-6.34-.08-9.56-.08s-6.38,.04-9.56,.17c-4.52,.23-6.14-1.03-7.17-3.34v-39.89c.91-2.42,2.39-3.57,6.77-3.56,7.27,.23,14.53,.12,21.79,.03l1.72-.02c2.3-.04,4.71-.91,6.44-2.34,12.16-10,24.28-20.05,36.41-30.1l13.37-11.08c1.46-1.2,3.08-1.8,4.36-1.62,.99,.13,1.85,.7,2.55,1.68,.53,.75,.93,2.19,1.01,3.59,.19,3.37,.15,6.75,.11,10.13l-.04,116.12Z"/><path class="b" d="M200.73,128.52l35.15-35.15c2-1.99,2-5.24,0-7.23-2-2-5.23-2-7.23,0l-35.15,35.15-35.15-35.15c-2-2-5.23-2-7.23,0-2,1.99-2,5.24,0,7.23l35.15,35.15-35.15,35.15c-2,1.99-2,5.24,0,7.23,1,1,2.3,1.5,3.62,1.5s2.61-.5,3.62-1.5l35.15-35.15,35.15,35.15c1,1,2.3,1.5,3.62,1.5s2.61-.5,3.62-1.5c2-1.99,2-5.24,0-7.23l-35.15-35.15Z"/></svg>