<?xml version="1.0" encoding="UTF-8"?><svg id="a" xmlns="http://www.w3.org/2000/svg" viewBox="0 0 256 256"><defs><style>.b{fill:#fff;}</style></defs><path class="b" d="M130.11,56.26c-2.35-3.31-5.74-5.4-9.55-5.89-4.17-.59-8.52,.83-12.21,3.88l-13.38,11.09c-12.12,10.04-24.23,20.07-36.45,30.08l-1.73,.03c-7.11,.1-14.24,.2-21.36-.02-10.88-.35-15.37,6.01-17.06,11.38l-.24,43.27,.31,1.76c2.75,7.53,8.57,11.1,17.5,10.83,6.15-.24,12.48-.16,18.58-.08l4.02,.04c3.07,2.43,6.06,4.94,9.06,7.44l40.92,33.92c3.11,2.58,6.41,3.88,9.83,3.88,.59,0,1.17-.04,1.76-.11,7.89-1,12.98-7.18,12.98-15.73V80.19l.04-4.18c.04-3.62,.08-7.23-.13-10.83-.19-3.36-1.25-6.6-2.9-8.93Z"/><path class="b" d="M237.85,125.37c-.11-1-.22-2.23-.34-3.62-.35-3.93-.82-9.3-1.73-14.6-3.92-22.91-13.78-43.66-29.32-61.66-5.79-6.7-14.63-7.68-21.06-2.35-7.56,6.28-8.61,15.04-2.68,22.32l1.43,1.74c1.53,1.85,3.06,3.7,4.44,5.67,14.58,20.7,20.38,43.83,17.25,68.73-1.3,10.35-4.43,20.6-9.29,30.43-3.62,7.32-8.34,13.79-12.46,19.15-5.59,7.24-4.23,15.84,3.47,21.91,2.73,2.16,5.85,3.21,8.97,3.21,4.33,0,8.66-2.04,11.88-5.98,19.33-23.58,28.96-51.16,29.47-84.31l-.03-.63Z"/><path class="b" d="M191.7,128.26c-.08-18.38-6.08-35.22-17.83-50.05-4.45-5.62-11.64-7.44-17.88-4.48-7.17,3.38-11.12,11.02-9.18,17.78,.9,3.12,2.7,5.69,4.35,8.04,9.04,12.88,11.63,26.66,7.93,42.11-1.69,7.07-5.48,13.31-8.6,17.95-4.78,7.09-2.59,16.08,5.19,21.38,2.48,1.69,5.3,2.5,8.11,2.5,4.59,0,9.14-2.18,12.12-6.27,10.61-14.58,15.77-30.58,15.81-48.94v-.03Z"/></svg>